<?xml version="1.0" standalone="no"?>
<!DOCTYPE svg PUBLIC "-//W3C//DTD SVG 1.1//EN" "http://www.w3.org/Graphics/SVG/1.1/DTD/svg11.dtd" >
<svg xmlns="http://www.w3.org/2000/svg">
<metadata>Generated by IcoMoon</metadata>
<defs>
<font id="mx-icon" horiz-adv-x="1024">
<font-face units-per-em="1024" ascent="896" descent="-128" />
<missing-glyph horiz-adv-x="1024" />
<glyph unicode="&#x20;" horiz-adv-x="512" d="" />
<glyph unicode="&#xe900;" glyph-name="accessibility" d="M416 736v-64c0-53.019 42.979-96 96-96s96 42.981 96 96v64c0 53.019-42.979 96-96 96s-96-42.981-96-96zM544 736v-64c0-17.673-14.326-32-32-32s-32 14.327-32 32v64c0 17.673 14.326 32 32 32s32-14.327 32-32zM864 512c0-17.674-14.326-32-32-32h-224v-178.138c0-9.136 1.955-18.166 5.738-26.483l126.179-277.6c13.152-28.931-8-61.779-39.779-61.779-17.136 0-32.691 10.016-39.782 25.616l-90.093 198.205c-22.736 50.022-93.789 50.022-116.525 0l-90.093-198.205c-7.091-15.6-22.646-25.616-39.782-25.616-31.78 0-52.932 32.848-39.781 61.779l126.181 277.6c3.782 8.317 5.738 17.347 5.738 26.483v178.138h-224c-17.673 0-32 14.326-32 32s14.327 32 32 32h640c17.674 0 32-14.326 32-32zM544 301.862v178.138h-64v-178.138c0-16.138-3.053-32.115-8.976-47.085 26.483 8.746 55.469 8.746 81.952 0-5.923 14.97-8.976 30.947-8.976 47.085z" />
<glyph unicode="&#xe901;" glyph-name="add" d="M544 768h-64v-352h-352v-64h352v-352h64v352h352v64h-352v352z" />
<glyph unicode="&#xe902;" glyph-name="add-circle" d="M480 416v224h64v-224h224v-64h-224v-224h-64v224h-224v64h224zM64 384c0 247.040 200.96 448 448 448s448-200.96 448-448c0-247.040-200.96-448-448-448s-448 200.96-448 448zM128 384c0-211.84 172.16-384 384-384s384 172.16 384 384c0 211.84-172.16 384-384 384s-384-172.16-384-384z" />
<glyph unicode="&#xe903;" glyph-name="aerospace" d="M544 640.001c0 17.673-14.326 32-32 32-17.67 0-32-14.327-32-32v-128.001h64v128.001zM568.902 788.354l-56.902 56.902-56.902-56.904c-66.013-66.012-103.098-155.542-103.098-248.896v-27.456c0-88.365-71.635-160-160-160-70.693 0-128.001-57.309-128-128v-96h255.998v-128h114.747l77.254-77.254 77.254 77.254h114.746v128h256v96c0 70.694-57.306 128-128 128-88.365 0-160 71.635-160 160v27.453c0 93.356-37.085 182.889-103.098 248.901zM192 288c123.711 0 224 100.288 224 224v27.456c0 76.38 30.342 149.632 84.352 203.642l11.648 11.648 11.645-11.646c54.013-54.011 84.355-127.265 84.355-203.647v-27.453c0-123.712 100.288-224 224-224 35.347 0 64-28.653 64-64v-32h-256v-128h-77.254l-50.746-50.746-50.746 50.746h-77.254v128h-256v32c0 35.347 28.654 64 64 64zM896-64h64v128h-64v-128zM128.001 64v-128h-64v128h64zM832 0v64h-64v-64h64zM256.001 64v-64h-64v64h64z" />
<glyph unicode="&#xe904;" glyph-name="airplane" d="M866.563 832c-55.040 0-112.96-25.28-155.52-67.52l-79.040-79.040-382.081 62.080h-5.12c-14.4 0.32-22.4-0.64-40.32-9.6l-129.92-94.4 336.641-179.84-99.201-113.28-168.64 9.92-61.12-97.92 206.72-101.44 101.441-206.72 97.92 61.12-9.92 168.64 113.28 99.2 179.84-336.64 91.52 125.44 2.88 4.48c8.96 17.92 9.92 25.92 9.92 40.32l-62.72 387.2 79.040 79.040c42.24 42.24 67.52 100.48 67.52 155.52 0 63.040-30.72 93.44-93.44 93.44h0.32zM847.043 628.16l-102.4-102.4 66.88-412.16c0 0 0-1.28 0-1.92 0 0-0.32-1.28-1.92-4.48l-29.76-40.96-169.92 317.76-197.44-172.8 9.6-161.92-5.76-3.52-80 162.56-162.561 80 3.52 5.76 161.921-9.6 172.8 197.44-317.441 169.92 40.96 29.76c3.2 1.6 4.16 1.92 4.16 1.92 0.64 0 1.6 0.32 2.24 0l412.161-66.88 102.4 102.4c45.44 45.44 95.68 48.96 110.080 48.96 27.52 0 29.44-1.92 29.44-29.44 0-14.4-3.52-64.64-48.96-110.080v-0.32z" />
<glyph unicode="&#xe905;" glyph-name="alarm-bell" d="M512-64c70.72 0 128 57.28 128 128h256v64c-23.68 0-96 0-96 192v256c0 105.92-86.080 192-192 192h-64v64h-64v-64h-64c-105.92 0-192-86.080-192-192v-256c0-192-72.32-192-96-192v-64h256c0-70.72 57.28-128 128-128zM512 0c-35.2 0-64 28.8-64 64h128c0-35.2-28.8-64-64-64zM246.4 128c24.96 38.72 41.6 99.52 41.6 192v256c0 70.72 57.28 128 128 128h192c70.72 0 128-57.28 128-128v-256c0-92.48 16.64-153.28 41.6-192h-531.2z" />
<glyph unicode="&#xe906;" glyph-name="alarm-bell-off" d="M607.994 768c64.96 0 123.2-32 158.4-84.16l0.32-0.32 138.88 138.88 45.12-45.12-832-831.68-45.12 45.12 74.56 74.56c-6.72-0.64-13.44-1.28-20.16-1.28v64c23.68 0 96 0 96 192v256c0 105.92 86.080 192 192 192h64v64h64v-64h64zM287.994 576v-256h-0.32c0-53.12-5.44-95.68-14.72-129.6l447.040 447.040c-22.080 40.96-64.32 66.56-112 66.56h-192c-70.72 0-128-57.28-128-128zM384.006 64h-42.24v64h435.84c-24.96 38.72-41.6 99.52-41.6 192v192h64v-192c0-192 72.32-192 96-192v-64h-256c0-70.72-57.28-128-128-128s-128 57.28-128 128zM448.006 64c0-35.2 28.8-64 64-64s64 28.8 64 64h-128z" />
<glyph unicode="&#xe907;" glyph-name="alert" d="M480 704v-512h64v512h-64zM560 80c0-26.509-21.491-48-48-48s-48 21.491-48 48c0 26.509 21.491 48 48 48s48-21.491 48-48z" />
<glyph unicode="&#xe908;" glyph-name="alert-circle" d="M512 96c26.509 0 48 21.491 48 48s-21.491 48-48 48c-26.509 0-48-21.491-48-48s21.491-48 48-48zM480 256v416h64v-416h-64zM512-64c-247.040 0-448 200.96-448 448s200.96 448 448 448c247.040 0 448-200.96 448-448s-200.96-448-448-448zM512 768c-211.84 0-384-172.16-384-384s172.16-384 384-384c211.84 0 384 172.16 384 384s-172.16 384-384 384z" />
<glyph unicode="&#xe909;" glyph-name="alert-triangle" d="M512 128c26.509 0 48 21.491 48 48s-21.491 48-48 48c-26.509 0-48-21.491-48-48s21.491-48 48-48zM480 544h64v-256h-64v256zM893.757 0h-763.52c-24 0-45.44 12.48-57.28 33.6-12.16 21.12-11.52 47.36 0.96 68.16l381.76 633.92c12.16 20.16 33.28 32.32 56.32 32.32s44.16-12.16 56.32-32.32l381.76-633.92c12.48-20.8 12.8-47.040 0.96-68.16s-33.28-33.6-57.28-33.6zM513.597 702.72l-384.96-633.92c0 0-0.64-2.56 0-3.84l765.44-1.28c2.24 2.56 2.24 3.84 1.6 4.8l-382.080 634.24z" />
<glyph unicode="&#xe90a;" glyph-name="align-bottom" d="M256 768c-35.2 0-64-28.8-64-64v-512c0-35.2 28.8-64 64-64h128c35.2 0 64 28.8 64 64v512c0 35.2-28.8 64-64 64h-128zM384 192h-128v512h128v-512zM640 537.6c-35.2 0-64-28.8-64-64v-281.6c0-35.2 28.8-64 64-64h128c35.2 0 64 28.8 64 64v281.6c0 35.2-28.8 64-64 64h-128zM768 192h-128v281.6h128v-281.6zM64 64h896v-64h-896v64z" />
<glyph unicode="&#xe90b;" glyph-name="align-center" d="M224 320c-35.2 0-64-28.8-64-64v-128c0-35.2 28.8-64 64-64h256v-128h64v128h256c35.2 0 64 28.8 64 64v128c0 35.2-28.8 64-64 64h-256v128h128c35.2 0 64 28.8 64 64v128c0 35.2-28.8 64-64 64h-128v128h-64v-128h-128c-35.2 0-64-28.8-64-64v-128c0-35.2 28.8-64 64-64h128v-128h-256zM352 512v128h320v-128h-320zM800 256v-128h-576v128h576z" />
<glyph unicode="&#xe90c;" glyph-name="align-left" d="M128 832h64v-896h-64v896zM256 512c0-35.2 28.8-64 64-64h256c35.2 0 64 28.8 64 64v128c0 35.2-28.8 64-64 64h-256c-35.2 0-64-28.8-64-64v-128zM320 640h256v-128h-256v128zM256 128c0-35.2 28.8-64 64-64h512c35.2 0 64 28.8 64 64v128c0 35.2-28.8 64-64 64h-512c-35.2 0-64-28.8-64-64v-128zM832 256v-128h-512v128h512z" />
<glyph unicode="&#xe90d;" glyph-name="align-middle" d="M832 544c0 35.2-28.8 64-64 64h-128c-35.2 0-64-28.8-64-64v-128h-128v256c0 35.2-28.8 64-64 64h-128c-35.2 0-64-28.8-64-64v-256h-128v-64h128v-256c0-35.2 28.8-64 64-64h128c35.2 0 64 28.8 64 64v256h128v-128c0-35.2 28.8-64 64-64h128c35.2 0 64 28.8 64 64v128h128v64h-128v128zM384 96h-128v576h128v-576zM768 224h-128v320h128v-320z" />
<glyph unicode="&#xe90e;" glyph-name="align-right" d="M832 832h64v-896h-64v896zM448 448h256c35.2 0 64 28.8 64 64v128c0 35.2-28.8 64-64 64h-256c-35.2 0-64-28.8-64-64v-128c0-35.2 28.8-64 64-64zM448 640h256v-128h-256v128zM704 64c35.2 0 64 28.8 64 64v128c0 35.2-28.8 64-64 64h-512c-35.2 0-64-28.8-64-64v-128c0-35.2 28.8-64 64-64h512zM704 256v-128h-512v128h512z" />
<glyph unicode="&#xe90f;" glyph-name="align-top" d="M64 768h896v-64h-896v64zM256 0h128c35.2 0 64 28.8 64 64v512c0 35.2-28.8 64-64 64h-128c-35.2 0-64-28.8-64-64v-512c0-35.2 28.8-64 64-64zM256 576h128v-512h-128v512zM832 576c0 35.2-28.8 64-64 64h-128c-35.2 0-64-28.8-64-64v-320c0-35.2 28.8-64 64-64h128c35.2 0 64 28.8 64 64v320zM768 256h-128v320h128v-320z" />
<glyph unicode="&#xe910;" glyph-name="alt-text" d="M172.157 640h67.84c22.72 0 41.92-16.32 47.68-40.32l96.319-464.32-62.72-13.12-28.159 135.68v-2.24h-167.68l-24.96-132.8-63.040 11.84 86.72 462.72c5.76 25.6 25.28 42.56 48 42.56zM185.277 576l-48-256h143.040l-53.12 256h-41.92zM767.997 576v-448h64v448h128v64h-320v-64h128zM671.997 128h-128c-53.018 0-96 42.979-96 96v416h64v-416c0-17.674 14.326-32 32-32h128v-64z" />
<glyph unicode="&#xe911;" glyph-name="analytics-bars" d="M896 576h-128c-35.2 0-64-28.8-64-64v-448h-64v640c0 35.2-28.8 64-64 64h-128c-35.2 0-64-28.8-64-64v-640h-64v192c0 35.2-28.8 64-64 64h-128c-35.2 0-64-28.8-64-64v-256h896v512c0 35.2-28.8 64-64 64zM256 64h-128v192h128v-192zM448 704h128v-640h-128v640zM896 64h-128v448h128v-448z" />
<glyph unicode="&#xe912;" glyph-name="analytics-graph-bar" d="M774.406 525.757l-270.080 209.92-396.16-396.16-45.12 45.44 435.84 435.84 264.96-206.080 139.2 173.44 49.92-40.32-178.56-222.080zM768 384h128c35.2 0 64-28.8 64-64v-384h-896v192c0 35.2 28.8 64 64 64h128c35.2 0 64-28.8 64-64v-128h64v448c0 35.2 28.8 64 64 64h128c35.2 0 64-28.8 64-64v-448h64v320c0 35.2 28.8 64 64 64zM128 0h128v128h-128v-128zM576 448h-128v-448h128v448zM768 0h128v320h-128v-320z" />
<glyph unicode="&#xe913;" glyph-name="apis" d="M256 192c-105.92 0-192 86.080-192 192v64c0 105.92 86.080 192 192 192 0 105.92 86.080 192 192 192h96c105.92 0 192-86.080 192-192v-64h25.28c101.76 0 188.8-76.16 198.080-173.12 5.12-54.080-12.8-107.84-48.96-147.84-21.69-23.782-48.698-41.459-78.4-51.878v-48.624c37.286-13.178 64-48.739 64-90.538 0-53.021-42.979-96-96-96s-96 42.979-96 96c0 41.798 26.714 77.36 64 90.538v37.462h-256v-44.224l64-32v-57.238c37.286-13.178 64-48.739 64-90.538 0-53.021-42.979-96-96-96s-96 42.979-96 96c0 41.798 26.714 77.36 64 90.538v17.686l-64 32v83.776h-128v-69.462c37.286-13.178 64-48.739 64-90.538 0-53.021-42.979-96-96-96-53.019 0-96 42.979-96 96 0 41.798 26.714 77.36 64 90.538v69.462zM768 64c0-17.674 14.326-32 32-32s32 14.326 32 32c0 17.674-14.326 32-32 32s-32-14.326-32-32zM288 64c-17.673 0-32-14.326-32-32s14.327-32 32-32c17.673 0 32 14.326 32 32s-14.327 32-32 32zM256 576c-70.72 0-128-57.28-128-128v-64c0-70.72 57.28-128 128-128h512c35.84 0 70.4 15.36 94.72 41.92 24.64 26.88 36.16 62.080 32.64 98.88-6.080 64.64-65.28 115.2-134.4 115.2h-89.28v128c0 70.72-57.28 128-128 128h-96c-70.72 0-128-57.28-128-128v-64h-63.68zM576-32c0 17.674-14.326 32-32 32s-32-14.326-32-32c0-17.674 14.326-32 32-32s32 14.326 32 32z" />
<glyph unicode="&#xe914;" glyph-name="app-empty" d="M160 800c-35.346 0-64-28.654-64-64v-88h64v88h88v64h-88zM600 800h-176v-64h176v64zM864 800h-88v-64h88v-88h64v88c0 35.346-28.653 64-64 64zM96 472v-176h64v176h-64zM928 296v176h-64v-176h64zM96 120v-88c0-35.347 28.654-64 64-64h88v64h-88v88h-64zM928 32v88h-64v-88h-88v-64h88c35.347 0 64 28.653 64 64zM424 32v-64h176v64h-176zM288 488.445c0 24.243 13.696 46.403 35.379 57.245l160 79.999c18.016 9.009 39.226 9.009 57.242 0l160-79.999c21.683-10.842 35.379-33.002 35.379-57.245v-181.504c0-21.776-11.072-42.061-29.392-53.837l-160-102.858c-21.082-13.552-48.134-13.552-69.216 0l-160 102.858c-18.318 11.776-29.392 32.061-29.392 53.837v181.504zM511.997 451.776l116.672 58.336-116.669 58.333-116.669-58.333 116.666-58.336zM672 306.941v153.283l-128-64v-171.568l128 82.285zM480 224.656v171.565l-128 64v-153.28l128-82.285z" />
<glyph unicode="&#xe915;" glyph-name="app-multiple" d="M896.643 586.325l-0.003-330.328h-64.64v336.002l-229.757 129.239-25.92 14.841-0.227-0.134-0.096 0.054 35.718 53.58 252.285-144.78c20.16-11.52 32.64-32.96 32.64-58.473zM128 176.010l0.004 346.24c0 23.36 12.48 44.8 32.64 55.999l256.959 149.753c19.52 10.56 42.56 10.56 61.76 0l258.88-149.753c20.16-11.519 32.64-32.959 32.64-55.999l-0.003-346.24c0-22.080-11.2-42.24-29.76-54.080l-258.24-160.010c-10.56-6.72-22.4-9.92-34.56-9.92s-24 3.2-34.56 9.92l-256 160.010c-18.56 11.84-29.76 32-29.76 54.080zM192.004 487.37l-0.004-311.36 224-139.53 0.003 328.65-223.999 122.24zM480.003 365.13l-0.003-328.65 226.24 139.53 0.003 311.36-226.24-122.24zM672.003 541.45l-223.68 130.552-222.079-130.552 221.759-120.96 224 120.96z" />
<glyph unicode="&#xe916;" glyph-name="apple-logo" d="M499.126 615.917c-9.539 51.992 15.046 105.499 44.653 141.557 32.627 39.786 88.624 70.298 136.474 73.651 8.083-54.511-14.163-107.622-43.443-145.189-31.414-40.359-85.421-71.656-137.683-70.019zM779.808 427.52c14.806 41.312 44.141 78.48 89.648 103.558-45.987 57.385-110.554 90.701-171.485 90.701-80.611 0-114.698-38.407-170.691-38.407-57.68 0-101.437 38.407-171.264 38.407-68.473 0-141.358-41.734-187.583-113.008-16.996-26.349-28.509-59.078-34.788-95.533-17.423-102.269 8.603-235.475 86.238-353.754 37.748-57.392 88.062-122.038 153.791-122.602 58.554-0.573 75.165 37.434 154.432 37.827 79.382 0.451 94.429-38.221 152.899-37.664 65.75 0.554 118.838 72.099 156.586 129.485 26.877 41.181 37.040 61.981 57.942 108.541-106.272 40.077-149.981 157.178-115.725 252.448z" />
<glyph unicode="&#xe917;" glyph-name="arrow-circle-down" d="M544 608v-338.88l137.28 137.6 45.44-45.44-214.72-214.4-214.719 214.4 45.439 45.44 137.28-137.6v338.88h64zM64 384c0 247.040 200.96 448 448 448s448-200.96 448-448c0-247.040-200.96-448-448-448s-448 200.96-448 448zM128 384c0-211.84 172.16-384 384-384s384 172.16 384 384c0 211.84-172.16 384-384 384s-384-172.16-384-384z" />
<glyph unicode="&#xe918;" glyph-name="arrow-circle-left" d="M489.274 598.719l45.44-45.439-137.6-137.28h338.88v-64h-338.88l137.6-137.28-45.44-45.44-214.399 214.72 214.399 214.719zM64 384c0 247.040 200.96 448 448 448s448-200.96 448-448c0-247.040-200.96-448-448-448s-448 200.96-448 448zM128 384c0-211.84 172.16-384 384-384s384 172.16 384 384c0 211.84-172.16 384-384 384s-384-172.16-384-384z" />
<glyph unicode="&#xe919;" glyph-name="arrow-circle-right" d="M626.88 416l-137.6 137.28 45.44 45.439 214.4-214.719-214.4-214.72-45.44 45.44 137.6 137.28h-338.88v64h338.88zM64 384c0 247.040 200.96 448 448 448s448-200.96 448-448c0-247.040-200.96-448-448-448s-448 200.96-448 448zM128 384c0-211.84 172.16-384 384-384s384 172.16 384 384c0 211.84-172.16 384-384 384s-384-172.16-384-384z" />
<glyph unicode="&#xe91a;" glyph-name="arrow-circle-up" d="M342.72 361.277l-45.439 45.44 214.719 214.4 214.72-214.4-45.44-45.44-137.28 137.6v-338.88h-64v338.88l-137.28-137.6zM64 384c0 247.040 200.96 448 448 448s448-200.96 448-448c0-247.040-200.96-448-448-448s-448 200.96-448 448zM128 384c0-211.84 172.16-384 384-384s384 172.16 384 384c0 211.84-172.16 384-384 384s-384-172.16-384-384z" />
<glyph unicode="&#xe91b;" glyph-name="arrow-down" d="M544 109.12v626.88h-64v-626.88l-297.279 297.6-45.44-45.44 374.719-374.4 374.72 374.4-45.44 45.44-297.28-297.6z" />
<glyph unicode="&#xe91c;" glyph-name="arrow-left" d="M877.12 425.28h-626.88l297.6 297.28-45.44 45.44-374.4-374.72 374.4-374.72 45.44 45.44-297.6 297.28h626.88v64z" />
<glyph unicode="&#xe91d;" glyph-name="arrow-narrow-down" d="M544 141.12v626.88h-64v-626.88l-169.279 169.6-45.44-45.44 246.719-246.4 246.72 246.4-45.44 45.44-169.28-169.6z" />
<glyph unicode="&#xe91e;" glyph-name="arrow-narrow-left" d="M438.714 585.279l-45.44 45.44-246.399-246.719 246.399-246.72 45.44 45.44-169.599 169.28h626.879v64h-626.879l169.599 169.279z" />
<glyph unicode="&#xe91f;" glyph-name="arrow-narrow-right" d="M585.28 585.279l169.6-169.279h-626.88v-64h626.88l-169.6-169.28 45.44-45.44 246.4 246.72-246.4 246.719-45.44-45.44z" />
<glyph unicode="&#xe920;" glyph-name="arrow-narrow-up" d="M265.281 502.717l45.44-45.44 169.279 169.6v-626.88h64v626.88l169.28-169.6 45.44 45.44-246.72 246.4-246.719-246.4z" />
<glyph unicode="&#xe921;" glyph-name="arrow-right" d="M457.28 713.279l297.6-297.279h-626.88v-64h626.88l-297.6-297.28 45.44-45.44 374.4 374.72-374.4 374.719-45.44-45.44z" />
<glyph unicode="&#xe922;" glyph-name="arrow-square-down" d="M297.281 457.28l214.719-214.4 214.72 214.4-45.44 45.44-169.28-169.6-169.28 169.6-45.439-45.44zM192 0h640c35.2 0 64 28.8 64 64v640c0 35.2-28.8 64-64 64h-640c-35.2 0-64-28.8-64-64v-640c0-35.2 28.8-64 64-64zM192 64v640h640v-640h-640z" />
<glyph unicode="&#xe923;" glyph-name="arrow-square-left" d="M370.874 384l214.4-214.72 45.44 45.44-169.6 169.28 169.6 169.28-45.44 45.439-214.4-214.719zM192 0h640c35.2 0 64 28.8 64 64v640c0 35.2-28.8 64-64 64h-640c-35.2 0-64-28.8-64-64v-640c0-35.2 28.8-64 64-64zM192 64v640h640v-640h-640z" />
<glyph unicode="&#xe924;" glyph-name="arrow-square-right" d="M393.28 214.72l45.44-45.44 214.4 214.72-214.4 214.719-45.44-45.439 169.6-169.28-169.6-169.28zM192 0h640c35.2 0 64 28.8 64 64v640c0 35.2-28.8 64-64 64h-640c-35.2 0-64-28.8-64-64v-640c0-35.2 28.8-64 64-64zM192 64v640h640v-640h-640z" />
<glyph unicode="&#xe925;" glyph-name="arrow-square-up" d="M342.72 265.277l-45.439 45.44 214.719 214.4 214.72-214.4-45.44-45.44-169.28 169.6-169.28-169.6zM192 768h640c35.2 0 64-28.8 64-64v-640c0-35.2-28.8-64-64-64h-640c-35.2 0-64 28.8-64 64v640c0 35.2 28.8 64 64 64zM192 704v-640h640v640h-640z" />
<glyph unicode="&#xe926;" glyph-name="arrow-thick-down" d="M512.006-32c-17.28 0-33.6 7.040-45.76 19.84l-240.319 253.12c-18.24 19.2-23.040 47.36-12.48 72 10.24 24 32.64 39.040 58.24 39.040h80.319v384c0 35.2 28.8 64 64 64h192c35.2 0 64-28.8 64-64v-384h80.32c25.6 0 48-15.040 58.24-39.040 10.56-24.64 5.44-52.8-12.48-72l-240.32-253.12c-12.16-12.8-28.16-19.84-45.76-19.84zM272.007 288c0 0-0.64-1.92 0.64-2.88l240.319-253.12 238.72 253.12c0 0 0 3.2 0 3.52h-143.36v447.36h-192v-448h-144.319z" />
<glyph unicode="&#xe927;" glyph-name="arrow-thick-left" d="M864 544h-384v80.318c0 25.6-15.040 48-39.040 58.24-24.64 10.56-52.8 5.44-72-12.48l-253.12-240.318c-12.8-12.16-19.84-28.16-19.84-45.76s7.040-33.6 19.84-45.76l253.12-240.32c12.48-11.84 28.8-18.24 45.44-18.24 8.96 0 17.92 1.92 26.56 5.44 24 10.24 39.040 32.64 39.040 58.24v80.32h384c35.2 0 64 28.8 64 64v192c0 35.2-28.8 64-64 64v0.32zM864 288h-448v-143.36c0 0-1.6-1.6-2.88 0l-253.12 238.72 253.12 240.318c0 0 0.96 0.64 1.6 0.64s1.28 0 1.28 0v-143.998h448v-192.32z" />
<glyph unicode="&#xe928;" glyph-name="arrow-thick-right" d="M655.040 669.759c-19.2 18.24-47.68 23.36-72 12.48-24-10.24-39.040-32.64-39.040-58.24v-80.319h-384c-35.2 0-64-28.8-64-64v-192c0-35.2 28.8-64 64-64h384v-80.32c0-25.6 15.040-48 39.040-58.24 8.64-3.84 17.6-5.44 26.56-5.44 16.64 0 32.96 6.4 45.44 18.24l253.12 240.32c12.8 12.16 19.84 28.16 19.84 45.76s-7.040 33.6-19.84 45.76l-253.12 240.319v-0.32zM610.88 144.32c0 0-2.24-0.64-2.88-0.64v144h-448v192h448v143.359c0 0 1.6 1.28 2.88 0l253.12-238.719-253.12-240.32v0.32z" />
<glyph unicode="&#xe929;" glyph-name="arrow-thick-up" d="M797.766 527.040l-240.32 253.119c-24 25.6-67.2 25.6-91.2 0l-240.319-253.119c-18.24-19.2-23.040-47.36-12.48-72 10.24-24 32.64-39.040 58.24-39.040h80.319v-384c0-35.2 28.8-64 64-64h192c35.2 0 64 28.8 64 64v384h80.32c25.6 0 48 15.040 58.24 39.040 10.56 24.64 5.44 52.8-12.48 72h-0.32zM752.006 480h-144v-448h-192v448h-143.359c0 0-1.28 1.6 0 2.88l238.719 253.119 240.32-253.119c0 0 0.32-2.56 0.64-2.88h-0.32z" />
<glyph unicode="&#xe92a;" glyph-name="arrow-triangle-down" d="M512.003 64c-21.44 0-40.96 10.56-52.16 28.48l-323.199 522.56c-11.2 17.92-11.52 39.68-1.28 58.24 10.56 18.88 31.040 30.72 53.44 30.72h646.399c22.4 0 42.88-11.84 53.44-30.72 10.24-18.56 9.92-40-1.28-58.24l-323.2-522.56c-10.88-17.92-30.4-28.48-52.16-28.48zM196.484 640l315.519-510.080 315.52 510.080h-631.039zM188.804 672v0z" />
<glyph unicode="&#xe92b;" glyph-name="arrow-triangle-left" d="M773.12 0.003c-10.56 0-20.8 2.88-30.080 8.64l-522.56 323.2c-17.92 11.2-28.48 30.4-28.48 52.16s10.56 40.96 28.48 52.16l522.56 323.2c17.92 11.2 39.68 11.52 58.24 1.28 18.88-10.56 30.72-31.040 30.72-53.44v-646.4c0-22.4-11.84-42.88-30.72-53.44-8.96-4.8-18.24-7.36-27.84-7.36h-0.32zM257.92 384.003l510.080-315.52v631.040l-510.080-315.52z" />
<glyph unicode="&#xe92c;" glyph-name="arrow-triangle-right" d="M250.873 0.003c-9.6 0-19.2 2.56-27.84 7.36-18.88 10.56-30.72 31.040-30.72 53.44v646.4c0 22.4 11.84 42.88 30.72 53.44 18.56 10.24 40.32 9.92 58.24-1.28l522.241-323.2c17.92-11.2 28.48-30.4 28.48-52.16s-10.56-40.96-28.48-52.16l-522.561-323.2c-9.28-5.76-19.84-8.64-30.080-8.64zM255.993 699.524v-631.040l510.081 315.52-510.081 315.52z" />
<glyph unicode="&#xe92d;" glyph-name="arrow-triangle-up" d="M835.203 64h-646.399c-22.4 0-42.88 11.84-53.44 30.72-10.24 18.56-9.92 40 1.28 58.24l323.199 522.56c10.88 17.92 30.4 28.48 52.16 28.48s40.96-10.56 52.16-28.48l323.2-522.56c11.2-17.92 11.52-39.68 1.28-58.24-10.56-18.88-31.040-30.72-53.44-30.72zM196.164 128h631.359l-315.52 510.080-315.519-510.080h-0.32z" />
<glyph unicode="&#xe92e;" glyph-name="arrow-up" d="M137.281 374.717l45.44-45.44 297.279 297.6v-626.88h64v626.88l297.28-297.6 45.44 45.44-374.72 374.4-374.719-374.4z" />
<glyph unicode="&#xe92f;" glyph-name="arrows-retweet" d="M832 672.96v-243.84h0.64l73.28 73.28 45.12-45.12-150.72-150.72-150.72 150.72 45.12 45.12 73.28-73.28v243.84l-512-0.96v-128h-64v128.96c0 34.88 28.8 63.040 64 63.040h512c35.2 0 64-28.48 64-63.040zM255.993 96l511.36 0.32v128h64v-131.52c0-33.28-28.8-60.48-64-60.48h-512.001c-35.2 0-64 26.88-64 60.16v246.4l-73.28-73.28-45.12 45.12 150.72 150.72 150.72-150.72-45.12-45.12-73.28 73.28v-242.88z" />
<glyph unicode="&#xe930;" glyph-name="asterisk" d="M884.797 525.44l-340.8-127.36v369.92h-64v-369.92l-340.8 127.36-22.4-59.84 342.4-128-256.64-317.44 49.92-40.32 259.52 321.28 259.52-321.28 49.92 40.32-256.64 317.44 342.4 128-22.4 59.84z" />
<glyph unicode="&#xe931;" glyph-name="badge" d="M384 544c0 74.24 53.76 128 128 128 72.96 0 128-53.76 128-128s-52.8-128-128-128c-75.2 0-128 53.76-128 128zM448 544c0-40 24-64 64-64 38.72 0 64 26.24 64 64s-25.28 64-64 64c-38.72 0-64-24-64-64zM224 544c0 166.72 121.28 288 288 288v0.32c164.16 0 288-123.84 288-288 0-91.2-36.16-168.32-96-219.84v-380.8l-192 115.2-192-115.2v376.96c-60.48 50.56-96 128.32-96 223.36zM384 281.6v-224.96l128 76.8 128-76.8v226.88c-38.080-17.28-80.64-27.2-128-27.2s-90.24 8.96-128 25.28zM288 544c0-136 88-224 224-224 131.84 0 224 94.080 224 224s-92.16 224-224 224c-131.84 0-224-88-224-224z" />
<glyph unicode="&#xe932;" glyph-name="bank" d="M560.003 655.995c0-26.51-21.491-48-48-48s-48 21.49-48 48c0 26.509 21.491 48 48 48s48-21.491 48-48zM491.971 825.755c12.611 6.307 27.456 6.306 40.070 0l457.776-228.889c42.285-21.141 27.238-84.869-20.035-84.869h-915.556c-47.274 0-62.319 63.728-20.035 84.869l457.78 228.889zM512.006 764.218l-376.447-188.221h752.892l-376.445 188.221zM64.004-64.006h895.999v128c0 35.347-28.653 64-64 64v256c35.347 0 64 28.656 64 64v64h-64v-64h-767.999v64h-64v-64c0-35.344 28.654-64 64-64v-256c-35.346 0-64-28.653-64-64v-128zM832.003 383.994v-256h-64v256h64zM704.003 383.994v-256h-96v256h96zM544.003 127.994h-64v256h64v-256zM320.003 383.994h96v-256h-96v256zM256.004 383.994v-256h-64v256h64zM128.004-0.006v64h767.999v-64h-767.999z" />
<glyph unicode="&#xe933;" glyph-name="barcode" d="M192 768h-64v-640h64v640zM384 768h-128v-640h128v640zM416 64h-288v-64h288v64zM608 64h-128v-64h128v64zM896 64h-224v-64h224v64zM512 768h-64v-640h64v640zM640 768h-64v-640h64v640zM768 768h-64v-640h64v640zM896 768h-64v-640h64v640z" />
<glyph unicode="&#xe934;" glyph-name="binoculars" d="M946.246 264.003l-112 434.879c-3.84 16.64-14.4 31.040-28.48 39.36-64.96 40-134.080 40.96-199.040 2.56-18.88-11.2-30.72-32-30.72-54.72v-110.399h-128v110.399c0 22.72-11.84 43.52-30.72 54.72-65.28 38.080-134.079 37.12-199.039-2.56-14.080-8.64-24.32-23.040-28.16-39.040l-112.32-435.519c-8.96-22.4-14.080-46.4-14.080-72 0-105.92 86.080-192 192-192s191.999 86.080 191.999 192v64h128v-64c0-105.92 86.080-192 192-192s192 86.080 192 192c0 25.28-5.12 49.6-14.080 72l0.64 0.32zM772.166 683.523l82.56-320.319c-25.92 13.12-55.36 20.8-86.4 20.8-49.28 0-94.080-18.88-128.32-49.6l-0.64 351.359c45.44 26.56 87.68 25.92 133.12-2.56l-0.32 0.32zM251.847 683.843c45.44 27.84 87.999 28.48 132.479 2.56v-351.679c-33.92 30.4-78.719 49.28-127.999 49.28-31.36 0-60.48-7.68-86.72-20.8l81.92 320.639h0.32zM256.327 64.003c-70.72 0-128 57.28-128 128s57.28 128 128 128c70.719 0 127.999-57.28 127.999-128s-57.28-128-127.999-128zM448.326 320.003v192h128v-192h-128zM768.326 64.003c-70.72 0-128 57.28-128 128s57.28 128 128 128c70.72 0 128-57.28 128-128s-57.28-128-128-128z" />
<glyph unicode="&#xe935;" glyph-name="bitcoin" d="M256 96v-64h160v-96h64v96h64v-96h64v96c88.32 0 160 71.68 160 160v64c0 60.16-33.92 112-83.2 139.52 31.36 29.12 51.2 70.4 51.2 116.48v64c0 77.12-55.040 141.76-128 156.8v99.2h-64v-96h-64v96h-64v-96h-160v-64h64v-576h-64zM576 672c52.8 0 96-43.2 96-96v-64c0-52.8-43.2-96-96-96h-192v256h192zM384 352h192c0 0 2.24 0 3.2 0.32h28.8c52.8-0.32 96-43.52 96-96.32v-64c0-52.8-43.2-96-96-96h-224v256z" />
<glyph unicode="&#xe936;" glyph-name="blockquote" d="M128 576v-192c0-35.347 28.654-64 64-64h64v-160c0-30.752 39.148-43.802 57.6-19.2l121.6 162.134c8.307 11.078 12.8 24.55 12.8 38.4v234.666c0 35.346-28.653 64-64 64h-192c-35.346 0-64-28.654-64-64zM384 341.334l-64-85.334v128h-128v192h192v-234.666zM576 576v-192c0-35.347 28.653-64 64-64h64v-160c0-30.752 39.149-43.802 57.6-19.2l121.6 162.134c8.307 11.078 12.8 24.55 12.8 38.4v234.666c0 35.346-28.653 64-64 64h-192c-35.347 0-64-28.654-64-64zM832 341.334l-64-85.334v128h-128v192h192v-234.666z" />
<glyph unicode="&#xe937;" glyph-name="blocks" d="M320 736c0 35.2 28.8 64 64 64h256c35.2 0 64-28.8 64-64v-256c0-35.2-28.8-64-64-64h-256c-35.2 0-64 28.8-64 64v256zM384 736v-256h256v256h-256zM416 352h-256c-35.2 0-64-28.8-64-64v-256c0-35.2 28.8-64 64-64h256c35.2 0 64 28.8 64 64v256c0 35.2-28.8 64-64 64zM160 32v256h256v-256h-256zM864 352h-256c-35.2 0-64-28.8-64-64v-256c0-35.2 28.8-64 64-64h256c35.2 0 64 28.8 64 64v256c0 35.2-28.8 64-64 64zM608 32v256h256v-256h-256z" />
<glyph unicode="&#xe938;" glyph-name="book-closed" d="M768 672h-415.68c-64.64 0-94.72 23.36-96.32 35.84-0.32 3.52 1.92 6.72 3.84 9.28 8 9.28 28.16 18.88 60.16 18.88h383.68v64h-383.36c-46.080 0-85.44-14.72-108.16-40.64-14.72-16.64-21.44-36.8-19.84-57.28v-606.080c0-70.72 57.28-128 128-128h447.68c35.2 0 64 28.8 64 64v576c0 35.2-28.8 64-64 64zM480 608h128v-169.6l-64 35.52-64-35.52v169.6zM320 32c-35.2 0-64 28.8-64 64v529.92c24.64-11.2 56.64-17.92 96-17.92h64v-278.4l128 71.040 128-71.040v278.4h96v-576h-448z" />
<glyph unicode="&#xe939;" glyph-name="book-open" d="M200.802 542.842l-17.587-61.536 223.992-64.019 17.587 61.536-223.992 64.019zM200.77 350.874l-17.587-61.539 223.992-64.016 17.587 61.536-223.992 64.019zM599.338 478.954l224.013 63.939 17.565-61.542-224.013-63.939-17.565 61.542zM823.248 350.579l-224.013-63.939 17.565-61.542 224.013 63.939-17.565 61.542zM880.64 798.401c19.84 4.48 39.68 0 55.040-12.16s24.32-30.72 24.32-50.24v-608.001c0-29.76-20.8-56.32-49.28-63.040l-398.72-97.92-399.040 97.92c-28.16 6.4-48.96 32.96-48.96 63.040v608.001c0 19.84 8.96 38.080 24.32 50.24s35.2 16.64 54.4 12.16l368.96-93.12 368.96 93.12zM480 647.041l-352.64 88.96 0.64-608.001 352-87.040v606.081zM544 40.96l351.36 86.080 0.64 608.961-352-88.96v-606.081z" />
<glyph unicode="&#xe93a;" glyph-name="bookmark" d="M832-54.4v790.4c0 35.2-28.8 64-64 64h-512c-35.2 0-64-28.8-64-64v-790.4l320 177.92 320-177.92zM256 736h512v-681.6l-256 142.080-256-142.080v681.6z" />
<glyph unicode="&#xe93b;" glyph-name="box-cog" d="M131.189 832h569.62l67.19-201.198v-118.802h-64v64h-128v-192h-320v192h-128v-384h256v-64h-258.88c-33.673 0-61.12 27.446-61.12 61.12v441.682l67.189 201.198zM134.546 640h562.907l-42.742 128h-477.42l-42.745-128zM320 576v-128h192v128h-192zM912 160c0 17.92-3.2 35.2-8.64 51.2l56.96 33.28-32.32 55.36-56.96-33.28c-22.4 25.28-52.48 43.52-86.72 50.24v67.2h-64v-67.2c-34.24-7.040-64-25.28-86.72-50.56l-57.28 33.28-32.32-55.36 57.28-33.28c-5.44-16-8.96-32.96-8.96-50.88s3.2-35.2 8.64-51.2l-56.96-33.28 32.32-55.36 56.96 33.28c22.4-25.28 52.48-43.52 86.72-50.24v-67.2h64v67.2c34.24 7.040 64 25.28 86.72 50.56l57.28-33.28 32.32 55.36-57.28 33.28c5.44 16 8.96 32.96 8.96 50.88zM752 64c-53.12 0-96 42.88-96 96s42.88 96 96 96c53.12 0 96-42.88 96-96s-42.88-96-96-96z" />
<glyph unicode="&#xe93c;" glyph-name="box-download" d="M131.189 832h569.62l67.19-201.198v-118.802h-64v64h-128v-192h-320v192h-128v-384h256v-64h-258.88c-33.673 0-61.12 27.446-61.12 61.12v441.682l67.189 201.198zM134.546 640h562.907l-42.742 128h-477.42l-42.745-128zM320 576v-128h192v128h-192zM704 45.254l-137.373 137.373-45.254-45.254 214.627-214.627 214.627 214.627-45.254 45.254-137.373-137.373v338.746h-64v-338.746z" />
<glyph unicode="&#xe93d;" glyph-name="brain" d="M736 192c-21.222 0-41.328 5.19-59.027 14.4l29.546 56.771c8.787-4.573 18.784-7.171 29.482-7.171v-64zM335.267 284.675c-9.741-18.058-15.267-38.72-15.267-60.675h64c0 35.347 28.653 64 64 64v64c-25.43 0-49.126-7.414-69.050-20.202-16.33 11.613-26.95 30.691-26.95 52.202h-64c0-40.109 18.439-75.869 47.267-99.325zM432 768c31.338 0 59.67-12.871 80-33.616 20.33 20.745 48.662 33.616 80 33.616 61.856 0 112-50.144 112-112v-16h17.334c61.12 0 110.666-49.547 110.666-110.666 0-31.939-8.275-56.058-20.909-73.664 32.061-23.261 52.909-61.030 52.909-103.67v-32c0-47.379-25.741-88.746-64-110.877v-17.123c0-49.376-27.958-92.224-68.906-113.571-5.347-17.501-15.12-33.603-29.626-46.726-23.238-21.027-55.578-31.702-93.469-31.702s-70.23 10.675-93.469 31.702c-0.861 0.778-1.706 1.568-2.531 2.365-0.826-0.797-1.67-1.587-2.531-2.365-23.238-21.027-55.578-31.702-93.469-31.702s-70.23 10.675-93.469 31.702c-14.504 13.123-24.279 29.226-29.624 46.726-40.949 21.347-68.907 64.195-68.907 113.571v17.123c-38.259 22.131-64 63.498-64 110.877v32c0 42.64 20.85 80.41 52.91 103.674-12.635 17.603-20.91 41.722-20.91 73.661 0 61.118 49.547 110.666 110.667 110.666h17.333v16c0 61.856 50.144 112 112 112zM641.616 608h-1.616v48c0 26.51-21.491 48-48 48s-48-21.49-48-48v-176c70.691 0 128-57.309 128-128h-64c0 35.347-28.653 64-64 64v-304c0-14.093 4.912-25.094 13.469-32.842 8.762-7.923 24.422-15.158 50.531-15.158s41.77 7.235 50.531 15.158c8.557 7.747 13.469 18.749 13.469 32.842v16c35.347 0 64 28.653 64 64v64c35.347 0 64 28.653 64 64v32c0 35.347-28.653 64-64 64v41.149c-0.003 22.851-0.038 22.851-0.038 22.851h-0.237l-0.195-0.003-0.163-0.006 0.486 0.010c0.672 0.061 1.914 0.237 3.517 0.576 3.306 0.701 7.488 2.070 11.469 4.598 5.984 3.802 17.162 13.488 17.162 44.16 0 25.773-20.893 46.666-46.666 46.666h-1.334c-26.509 0-48-21.491-48-48v-16h-64v16c0 31.338 12.87 59.672 33.616 80zM352 528c0 26.509-21.491 48-48 48h-1.333c-25.773 0-46.667-20.893-46.667-46.666 0-30.672 11.18-40.358 17.162-44.16 3.981-2.528 8.163-3.898 11.469-4.598 1.604-0.339 2.841-0.486 3.512-0.547l0.493-0.038-0.163 0.006-0.196 0.003-0.134 0.029-0.066-0.029c0 0-0.076 0-0.077-30.477v-33.523c-35.346 0-64-28.653-64-64v-32c0-35.347 28.654-64 64-64v-64c0-35.347 28.654-64 64-64v-16c0-14.093 4.912-25.094 13.469-32.842 8.762-7.923 24.422-15.158 50.531-15.158s41.77 7.235 50.531 15.158c8.518 7.709 13.421 18.646 13.469 32.64v544.202c0 26.51-21.491 48-48 48s-48-21.49-48-48v-48h-1.616c20.746-20.328 33.616-48.662 33.616-80v-16h-64v16z" />
<glyph unicode="&#xe93e;" glyph-name="branch-line" d="M640 672c0-73.338 49.341-135.152 116.64-154.054-41.232-188.704-189.754-337.478-378.589-378.573-16.080 57.235-63.202 101.482-122.051 113.427v547.2h-64v-547.2c-73.032-14.826-128-79.392-128-156.8 0-88.365 71.635-160 160-160 81.229 0 148.32 60.531 158.627 138.947 220.678 44.195 394.125 218.026 438.445 438.429 78.406 10.314 138.928 77.401 138.928 158.624 0 88.365-71.635 160-160 160s-160-71.635-160-160zM800 768c53.021 0 96-42.981 96-96s-42.979-96-96-96c-53.021 0-96 42.981-96 96s42.979 96 96 96zM128 96c0 53.021 42.981 96 96 96s96-42.979 96-96c0-53.021-42.981-96-96-96s-96 42.979-96 96z" />
<glyph unicode="&#xe93f;" glyph-name="briefcase" d="M864 640h-166.72v73.6c0 33.92-34.24 54.4-67.52 54.4h-248.96c-44.48 0-67.52-27.52-67.52-54.4v-73.6h-153.28c-35.2 0-64-28.8-64-64v-512c0-35.2 28.8-64 64-64h704c35.2 0 64 28.8 64 64v512c0 35.2-28.8 64-64 64zM377.28 703.68c0 0 2.24 0 3.52 0h248.96c0 0 2.56 0 3.52-0.32v-63.68h-256v64zM160 64v280.32c22.4-15.36 48.96-24.32 76.8-24.32h243.2v-64h64v64h243.2c28.48 0 54.72 8.32 76.8 22.4v-278.4h-704zM864 460.8c0-37.76-28.8-76.8-76.8-76.8h-550.4c-40.32 0-76.8 36.48-76.8 76.8v115.2h704v-115.2z" />
<glyph unicode="&#xe940;" glyph-name="briefcase-finances" d="M704 704h-124.48v73.6c0 33.92-34.24 54.4-67.52 54.4h-192c-44.48 0-67.52-27.52-67.52-54.4v-73.6h-124.48c-35.2 0-64-28.8-64-64v-384c0-35.2 28.8-64 64-64h512v64h-512v216.32c22.4-15.36 48.96-24.32 76.8-24.32h179.2v-64h64v64h179.2c28.48 0 54.72 8.32 76.8 22.4v-86.4h64v256c0 35.2-28.8 64-64 64zM316.48 767.68h195.52c0 0 2.56 0 3.52-0.32v-63.68h-199.040v64zM704 588.8c0-37.76-28.8-76.8-76.8-76.8h-422.4c-40.32 0-76.8 36.48-76.8 76.8v51.2h576v-51.2zM864 319.36v32.64h-64v-32.64h-15.68c-44.234 0-80.32-36.086-80.32-80.32v-33.92c0-20.086 8.454-38.070 19.866-51.28 11.299-13.082 27.37-23.67 46.003-27.168 8.080-1.626 30.73-4.173 52.182-6.589l4.643-0.522c25.459-2.87 50.346-5.702 60.378-7.421 6.077-1.043 11.808-8.013 11.808-14.221v-49.6c0-2.003-1.19-6.17-5.549-10.381-4.262-4.115-9.206-5.939-13.011-5.939h-96c-8.886 0-16.32 7.434-16.32 16.32v15.68h-64v-15.68c0-44.234 36.086-80.32 80.32-80.32h15.68v-32h64v32h16.32c22.755 0 43.091 10.016 57.469 23.901 14.278 13.789 25.091 33.782 25.091 56.419v49.6c0 35.392-26.269 70.662-64.995 77.299-12.298 2.109-39.494 5.174-63.616 7.894l-1.651 0.186c-12.016 1.354-23.491 2.646-32.752 3.76-4.79 0.579-8.854 1.091-12.019 1.526-1.581 0.218-2.845 0.403-3.805 0.557-0.787 0.125-1.28 0.214-1.28 0.214l-0.515 0.112-0.522 0.096c-2.314 0.419-6.093 2.253-9.43 6.115-3.309 3.83-4.294 7.446-4.294 9.44v33.92c0 8.886 7.434 16.32 16.32 16.32h92.16c4.714 0 10.141-2.051 14.358-5.882 4.138-3.763 5.482-7.648 5.482-10.438v-15.040h64v15.040c0 47.046-42.56 80.32-83.84 80.32h-12.48z" />
<glyph unicode="&#xe941;" glyph-name="browser" d="M896 736h-768c-35.2 0-64-28.8-64-64v-576c0-35.2 28.8-64 64-64h768c35.2 0 64 28.8 64 64v576c0 35.2-28.8 64-64 64zM896 672v-96h-768v96h768zM128 96v416h768v-416h-768z" />
<glyph unicode="&#xe942;" glyph-name="browser-cloud" d="M384 383.997c0 61.856 50.144 112 112 112h16c70.691 0 128-57.306 128-128v-16h16c53.021 0 96-42.979 96-96 0-53.018-42.979-96-96-96h-288c-53.019 0-96 42.982-96 96v32c0 53.021 42.981 96 96 96h16zM576 287.997v80c0 35.347-28.653 64-64 64h-16c-26.509 0-48-21.488-48-48v-64h-80c-17.674 0-32-14.326-32-32v-32c0-17.67 14.326-32 32-32h288c17.674 0 32 14.33 32 32 0 17.674-14.326 32-32 32h-80zM896 736h-768c-35.2 0-64-28.8-64-64v-576c0-35.2 28.8-64 64-64h768c35.2 0 64 28.8 64 64v576c0 35.2-28.8 64-64 64zM896 672v-64h-768v64h768zM128 96v448h768v-448h-768z" />
<glyph unicode="&#xe943;" glyph-name="browser-code" d="M194.883 304l134.4 134.72 45.44-45.44-89.6-89.28 89.6-89.28-45.44-45.44-134.4 134.72zM449.251 200.829l63.898 224.026 61.546-17.555-63.898-224.026-61.546 17.555zM649.28 393.28l45.44 45.44 134.4-134.72-134.4-134.72-45.44 45.44 89.6 89.28-89.6 89.28zM896 736h-768c-35.2 0-64-28.8-64-64v-576c0-35.2 28.8-64 64-64h768c35.2 0 64 28.8 64 64v576c0 35.2-28.8 64-64 64zM896 672v-96h-768v96h768zM128 96v416h768v-416h-768z" />
<glyph unicode="&#xe944;" glyph-name="browser-dashboard" d="M928 512h-832v64h832v-64zM64 672c0 35.346 28.654 64 64 64h768c35.347 0 64-28.654 64-64v-576c0-35.347-28.653-64-64-64h-768c-35.346 0-64 28.653-64 64v576zM896 672h-768v-576h768v576zM832 320v-160h-64v160h64zM704 384v-224h-64v224h64zM576 224v-64h-64v64h64zM336 224c-44.183 0-80 35.818-80 80s35.817 80 80 80c44.182 0 80-35.818 80-80s-35.818-80-80-80zM336 160c79.53 0 144 64.47 144 144s-64.47 144-144 144c-79.529 0-144-64.47-144-144s64.471-144 144-144zM480 304c0 18.909-3.725 37.635-10.96 55.107-7.238 17.469-17.846 33.344-31.216 46.717-13.373 13.37-29.248 23.978-46.717 31.216-17.472 7.235-36.198 10.96-55.107 10.96v-144h144z" />
<glyph unicode="&#xe945;" glyph-name="browser-low-code" d="M896 736h-768c-35.2 0-64-28.8-64-64v-576c0-35.2 28.8-64 64-64h768c35.2 0 64 28.8 64 64v576c0 35.2-28.8 64-64 64zM896 672v-96h-768v96h768zM128 96v416h768v-416h-768zM192 364.33c0 29.456 23.878 53.334 53.333 53.334h117.332c29.456 0 53.334-23.878 53.334-53.334v-117.331c0-29.456-23.878-53.334-53.334-53.334h-117.332c-29.455 0-53.333 23.878-53.333 53.334v117.331zM256 353.664v-96h96v96h-96zM607.002 305.664c0 61.856 50.144 112 112 112 61.853 0 112-50.144 112-112s-50.147-112-112-112c-61.856 0-112 50.144-112 112zM719.002 353.664c-26.512 0-48-21.491-48-48s21.488-48 48-48c26.509 0 48 21.491 48 48s-21.491 48-48 48zM505.29 438.288l131.728-135.725-134.493-133.293-45.050 45.459 56.778 56.272h-130.253v64h132.349l-56.986 58.71 45.926 44.576z" />
<glyph unicode="&#xe946;" glyph-name="browser-no-code" d="M896 736h-768c-35.2 0-64-28.8-64-64v-576c0-35.2 28.8-64 64-64h768c35.2 0 64 28.8 64 64v576c0 35.2-28.8 64-64 64zM896 672v-96h-768v96h768zM128 96v416h768v-416h-768zM192 448h64v-64h-64v64zM256 448h64v-64h-64v64zM192 256h64v-32h-64v32zM416 448h192v-64h-192v64zM416 224h192v-64h-192v64zM256 224h64v-64h-64v64zM704 448h64v-64h-64v64zM704 224h64v-64h-64v64zM768 448h64v-64h-64v64zM192 384h64v-32h-64v32zM768 384h64v-32h-64v32zM768 256h64v-32h-64v32zM192 224h64v-64h-64v64zM768 224h64v-64h-64v64z" />
<glyph unicode="&#xe947;" glyph-name="browser-page-text" d="M832 384h-448v-64h448v64zM384 256h320v-64h-320v64zM896 736h-768c-35.2 0-64-28.8-64-64v-576c0-35.2 28.8-64 64-64h768c35.2 0 64 28.8 64 64v576c0 35.2-28.8 64-64 64zM896 672v-96h-768v96h768zM128 512h128v-416h-128v416zM320 96v416h576v-416h-576z" />
<glyph unicode="&#xe948;" glyph-name="browser-search" d="M128 832h768c35.2 0 64-28.8 64-64v-384h-64v224h-768v-416h288v-64h-288c-35.2 0-64 28.8-64 64v576c0 35.2 28.8 64 64 64zM128 768v-96h768v96h-768zM828.48 112.96l122.24-122.24-45.44-45.44-122.24 122.24c-31.36-22.080-69.76-35.52-111.040-35.52-105.92 0-192 86.080-192 192s86.080 192 192 192c105.92 0 192-86.080 192-192 0-41.28-13.12-79.68-35.52-111.040zM672 352c-70.72 0-128-57.28-128-128s57.28-128 128-128c70.72 0 128 57.28 128 128s-57.28 128-128 128z" />
<glyph unicode="&#xe949;" glyph-name="browser-trophy" d="M128 832h768c35.2 0 64-28.8 64-64v-256h-64v96h-768v-416h320v-64h-320c-35.2 0-64 28.8-64 64v576c0 35.2 28.8 64 64 64zM128 768v-96h768v96h-768zM448 448h512v-114.24c0-60.48-49.28-109.76-109.76-109.76h-18.24c0-59.52-40.96-109.12-96-123.52v-100.48h96v-64h-256v64h96v100.48c-55.040 14.4-96 64-96 123.52h-32c-52.8 0-96 43.2-96 96v128zM512 320c0-17.6 14.4-32 32-32h32v96h-64v-64zM640 224c0-35.2 28.8-64 64-64s64 28.8 64 64v160h-128v-160zM850.24 288c25.28 0 45.76 20.48 45.76 45.76v50.24h-64v-96h18.24z" />
<glyph unicode="&#xe94a;" glyph-name="bug" d="M401.75 677.565c38.79 18.948 84.819 26.435 126.25 26.435 26.090 0 46.262-2.59 65.142-9.602 6.182-2.297 11.997-4.993 17.59-7.981 15.795 30.537 34.474 60.008 54.765 84.165 13.837 16.474 29.152 31.347 45.626 42.309 16.378 10.898 35.712 19.109 56.877 19.109v-64c-4.435 0-11.501-1.789-21.424-8.391-9.824-6.538-20.71-16.665-32.074-30.191-18.384-21.886-36.115-50.391-51.088-80.634 36.691-35.642 53.824-84.234 63.635-136.784h17.936l6.058-24.24c1.872-7.475 5.894-26.16 9.555-55.683l71.402 35.699v172.224h64v-211.776l-129.549-64.778c0.96-18.854 1.549-39.747 1.549-62.646 0-8.32-0.147-16.592-0.445-24.8l128.445-64.224v-243.776h-64v204.224l-70.64 35.318c-8.966-60.317-27.114-115.165-55.043-159.734-42.55-67.898-108.096-111.808-194.317-111.808s-151.766 43.91-194.316 111.808c-27.93 44.57-46.079 99.418-55.046 159.734l-70.639-35.318v-204.224h-64v243.776l128.444 64.224c-0.297 8.208-0.444 16.48-0.444 24.8 0 23.069 0.563 43.942 1.489 62.678l-129.489 64.746v211.776h64v-172.224l71.265-35.632c3.699 29.786 7.805 48.077 9.69 55.616l6.060 24.24h17.98c8.836 47.344 23.58 91.151 53.036 125.443-16.022 34.4-35.867 67.371-56.534 91.975-11.363 13.526-22.249 23.653-32.075 30.191-9.923 6.602-16.988 8.391-21.423 8.391v64c21.165 0 40.5-8.211 56.877-19.109 16.474-10.962 31.788-25.836 45.625-42.309 22.246-26.484 42.554-59.356 59.248-93.017zM605.616 613.807c-16.211 11.349-25.11 17.012-34.758 20.595-9.12 3.388-20.947 5.598-42.858 5.598-40.858 0-81.837-8.835-110.131-26.562-28.701-20.699-45.155-53.032-55.594-101.438h299.494c-10.522 48.8-27.139 81.384-56.154 101.807zM330.198 448c-4.49-26.976-10.198-75.376-10.198-147.2 0-89.002 18.509-165.696 51.917-219.008 32.65-52.102 79.104-81.792 140.083-81.792s107.434 29.69 140.083 81.792c33.408 53.312 51.917 130.006 51.917 219.008 0 70.246-5.805 119.642-10.307 147.2h-363.494z" />
<glyph unicode="&#xe94b;" glyph-name="calendar" d="M256 544h512v-64h-512v64zM704 736h128c35.2 0 64-28.8 64-64v-640c0-35.2-28.8-64-64-64h-640c-35.2 0-64 28.8-64 64v640c0 35.2 28.8 64 64 64h128v64h64v-64h256v64h64v-64zM192 672v-640h640v640h-128v-64h-64v64h-256v-64h-64v64h-128z" />
<glyph unicode="&#xe94c;" glyph-name="calendar-1" d="M768 544h-512v-64h512v64zM256 320v64h128v-64h-128zM576 384h-128v-64h128v64zM256 160v64h128v-64h-128zM576 224h-128v-64h128v64zM640 320v64h128v-64h-128zM832 736h-128v64h-64v-64h-256v64h-64v-64h-128c-35.2 0-64-28.8-64-64v-640c0-35.2 28.8-64 64-64h640c35.2 0 64 28.8 64 64v640c0 35.2-28.8 64-64 64zM192 32v640h128v-64h64v64h256v-64h64v64h128v-640h-640z" />
<glyph unicode="&#xe94d;" glyph-name="camera" d="M320 320c0 105.92 86.080 192 192 192 104 0 192-86.080 192-192s-84.48-192-192-192c-107.52 0-192 86.080-192 192zM384 320c0-71.68 56.32-128 128-128 70.72 0 128 59.84 128 128s-57.28 128-128 128c-70.72 0-128-56.32-128-128zM728.96 640h167.040c35.2 0 64-28.8 64-64v-512c0-35.2-28.8-64-64-64h-768c-35.2 0-64 28.8-64 64v512c0 35.2 28.8 64 64 64h167.040l19.84 79.36c7.040 28.8 32.64 48.64 62.080 48.64h270.080c29.44 0 55.040-20.16 62.080-48.64l19.84-79.36zM128 576v-512h768v512h-216.96l-32 128h-270.080l-32-128h-216.96z" />
<glyph unicode="&#xe94e;" glyph-name="camping-tent" d="M795.84 568.643l-249.6 157.439c-20.8 13.12-47.36 13.12-68.16 0l-249.602-157.439-142.080-536.64h851.198l-141.757 536.64zM283.838 528.003l228.162 143.999 228.477-143.999 114.24-432h-204.8l-93.437 218.24c-7.68 17.6-24.96 29.12-44.16 29.12s-36.48-11.52-44.16-29.12l-93.44-218.24h-205.122l114.24 432zM580.16 96.003h-135.68l67.84 158.72 67.84-158.72z" />
<glyph unicode="&#xe94f;" glyph-name="cap" d="M96 288c17.673 0 32-14.326 32-32h-64v-96h686.768c115.555 0 209.232 93.677 209.232 209.232 0 25.827-20.941 46.768-46.768 46.768h-169.238c-51.197 131.088-178.707 224-327.994 224-49.658 0-96.912-10.282-139.753-28.834-10.002 9.8-25.668 12.181-38.389 4.837l-27.713-16c-13.289-7.672-18.993-23.437-14.481-37.476-80.28-64.515-131.664-163.523-131.664-274.528h32zM133.518 344.39c26.216 132.061 142.723 231.61 282.482 231.61 122.371 0 226.986-76.339 268.685-184.061-105.997-107.274-250.73-167.939-402.060-167.939h-90.625v32c0 39.706-24.106 73.782-58.482 88.39zM735.139 352h159.85c-8.522-72.086-69.84-128-144.221-128h-191.651c65.066 31.824 124.749 74.934 176.022 128z" />
<glyph unicode="&#xe950;" glyph-name="car" d="M640 320h-256v-64h256v64zM256 352c0-17.674-14.327-32-32-32s-32 14.326-32 32c0 17.674 14.327 32 32 32s32-14.326 32-32zM800 320c17.674 0 32 14.326 32 32s-14.326 32-32 32c-17.674 0-32-14.326-32-32s14.326-32 32-32zM704 128v-32c0-53.021 42.979-96 96-96s96 42.979 96 96v32c35.347 0 64 28.653 64 64v256c0 35.347-28.653 64-64 64h-18.746l32 32h50.746v64h-77.254l-34.195-34.195-36.432 145.717c-7.123 28.491-32.72 48.478-62.090 48.478h-476.059c-29.367 0-54.966-19.987-62.089-48.478l-36.43-145.717-34.196 34.195h-77.255v-64h50.745l32-32h-18.745c-35.346 0-64-28.653-64-64v-256c0-35.347 28.654-64 64-64v-32c0-53.021 42.981-96 96-96s96 42.979 96 96v32h384zM750.029 704l48-192h-572.059l48 192h476.059zM896 448v-256h-768v256h768zM768 128h64v-32c0-17.674-14.326-32-32-32s-32 14.326-32 32v32zM192 96v32h64v-32c0-17.674-14.327-32-32-32s-32 14.326-32 32z" />
<glyph unicode="&#xe951;" glyph-name="cards-apps" d="M320 574.666c0 24.052 13.482 46.071 34.906 57.005l128 65.333c18.275 9.328 39.914 9.328 58.189 0l128-65.333c21.424-10.934 34.906-32.954 34.906-57.005v-150.259c0-21.565-10.858-41.677-28.886-53.507l-128-84c-21.318-13.99-48.909-13.99-70.227 0l-128 84c-18.029 11.83-28.886 31.942-28.886 53.507v150.259zM511.997 555.638l83.494 41.747-83.491 42.614-83.491-42.615 83.488-41.746zM544 500.086v-138.682l96 63.002v123.68l-96-48zM480 500.086l-96 48v-123.68l96-63.002v138.682zM704 96h-256v64h256v-64zM320 96h64v64h-64v-64zM192 768v-768c0-35.347 28.654-64 64-64h512c35.347 0 64 28.653 64 64v768c0 35.346-28.653 64-64 64h-512c-35.346 0-64-28.654-64-64zM256 768h512v-768h-512v768zM96 768c-35.346 0-64-28.654-64-64v-640c0-35.347 28.654-64 64-64h32v64h-32v640h32v64h-32zM992 704c0 35.346-28.653 64-64 64h-32v-64h32v-640h-32v-64h32c35.347 0 64 28.653 64 64v640z" />
<glyph unicode="&#xe952;" glyph-name="cards-users" d="M704 96h-256v64h256v-64zM320 96h64v64h-64v-64zM556.307 416h-88.614c-81.526 0-147.693-39.68-147.693-128v-32h59.078v32c0 52.8 39.875 64 88.614 64h88.614c48.739 0 88.614-11.2 88.614-64v-32h59.078v32c0 88.32-66.166 128-147.693 128zM624 556.8c0-59.84-48.64-108.8-108.8-108.8-59.84 0-108.8 48.96-108.8 108.8v38.4c0 59.84 48.96 108.8 108.8 108.8s108.8-48.96 108.8-108.8v-38.4zM515.2 640c-24.64 0-44.8-20.16-44.8-44.8v-38.4c0-24.64 20.16-44.8 44.8-44.8s44.8 20.16 44.8 44.8v38.4c0 24.64-20.16 44.8-44.8 44.8zM256 832h512c35.347 0 64-28.654 64-64v-768c0-35.347-28.653-64-64-64h-512c-35.346 0-64 28.653-64 64v768c0 35.346 28.654 64 64 64zM768 768h-512v-768h512v768zM32 704c0 35.346 28.654 64 64 64h32v-64h-32v-640h32v-64h-32c-35.346 0-64 28.653-64 64v640zM928 768c35.347 0 64-28.654 64-64v-640c0-35.347-28.653-64-64-64h-32v64h32v640h-32v64h32z" />
<glyph unicode="&#xe953;" glyph-name="cash-payment-bill" d="M896 640h-32v-64h32v-384h-537.92c5.44 11.2 10.88 22.72 16.32 34.88l180.16 25.28c31.040 5.12 53.44 31.68 53.44 63.040v36.8c0 35.2-28.8 64-64 64h-224v160h192.32v64h-192.32c-35.2 0-64-28.8-64-64v-64h-31.68c-43.84 0-58.24-11.84-77.12-31.68l-19.52-20.8v52.48h-63.68v-576h64v69.44c80 9.28 141.76 47.68 192.96 122.56h575.040c35.2 0 64 28.8 64 64v384c0 35.2-28.8 64-64 64zM128 69.76v296.32l58.24 62.72 7.36 7.68c10.88 11.52 11.2 11.84 30.72 11.84h31.68v-96h288l0.96-36.8-215.36-30.080-7.040-16.96c-61.44-149.76-128.96-189.12-194.56-198.4v-0.32zM640 448.32v-32.32h64v32h13.44c43.84 0 82.56 37.44 82.56 80.32v49.6c0 37.76-27.84 70.72-64.96 77.44-10.56 1.92-29.76 4.48-48 7.36-19.84 2.88-39.040 5.44-46.080 7.040-6.4 1.28-13.76 9.28-13.76 15.68v33.92c0 8.96 7.68 16.32 16.32 16.32h61.44c8.96 0 16.32-7.68 16.32-16.32v-23.68h64v23.68c0 44.48-36.16 80.32-80.32 80.32h-1.28v32h-64v-32.32c-42.56-1.92-76.8-37.12-76.8-80v-33.92c0-37.12 29.12-71.68 64.96-78.4 6.72-1.6 27.84-4.48 49.6-7.68 17.6-2.56 35.84-5.12 46.080-7.040 7.040-1.28 12.16-8.64 12.16-14.4v-49.6c0-6.72-9.28-16.32-18.56-16.32h-73.92c-8.96 0-16.32 7.68-16.32 16.32v23.68h-64v-23.68c0-43.2 34.24-78.080 76.8-80h0.32z" />
<glyph unicode="&#xe954;" glyph-name="cash-payment-bill-2" d="M608 704c-52.16 0-96-43.84-96-96s43.84-96 96-96c52.16 0 96 43.84 96 96s-43.84 96-96 96zM608 576c-16.32 0-32 15.68-32 32s15.68 32 32 32c16.32 0 32-15.68 32-32s-15.68-32-32-32zM896 832h-576c-35.2 0-64-28.8-64-64v-320c0-35.2 28.8-64 64-64h576c35.2 0 64 28.8 64 64v320c0 35.2-28.8 64-64 64zM320 448v320h576v-320h-576zM596.48 192h299.52v-0.32c35.2 0 64-28.8 64-64v-35.84c0-32-24-59.52-56-63.36l-487.68-60.8-288.32 28.8v-60.48h-64v448h64v-64h432c26.56 0 48-21.44 48-48v-43.84c0-13.44-4.48-25.92-11.52-36.16zM415.68 32l480.32 60.16v35.52h-544v32l-5.76 31.36 197.76 36.8v27.84h-416v-194.88l287.68-28.8z" />
<glyph unicode="&#xe955;" glyph-name="cat" d="M352 608h320l160 160 80.566-503.555c24.89-155.542-95.264-296.445-252.784-296.445h-295.568c-157.519 0-277.671 140.906-252.784 296.445l80.569 503.555 160.001-160zM788.608 634.1l-90.099-90.1h-373.021l-90.099 90.1-60.763-379.767c-18.665-116.656 71.449-222.333 189.588-222.333h295.568c118.141 0 208.253 105.677 189.59 222.333l-60.765 379.767zM368 336c0-26.509-21.491-48-48.001-48s-48 21.491-48 48c0 26.509 21.49 48 48 48s48.001-21.491 48.001-48zM752 336c0-26.509-21.491-48-48-48-26.512 0-48 21.491-48 48s21.488 48 48 48c26.509 0 48-21.491 48-48zM590.31 227.379l-78.31-39.155-78.31 39.155 28.621 57.242 49.69-24.845 49.69 24.845 28.621-57.242zM544 224c0-35.347 28.653-64 64-64v-64c-70.694 0-128 57.309-128 128h64zM480 224c0-35.347-28.656-64-64-64v-64c70.691 0 128 57.309 128 128h-64z" />
<glyph unicode="&#xe956;" glyph-name="cd" d="M512 544c-88.32 0-160-71.68-160-160s71.68-160 160-160c88.32 0 160 71.68 160 160s-71.68 160-160 160zM512 288c-52.8 0-96 43.2-96 96s43.2 96 96 96c52.8 0 96-43.2 96-96s-43.2-96-96-96zM599.36 624.637l21.76 60.16c101.12-36.8 176.64-120.96 201.92-225.6l-62.080-15.040c-20.16 83.52-80.64 151.040-161.6 180.48zM512 832c-247.040 0-448-200.96-448-448s200.96-448 448-448c247.040 0 448 200.96 448 448s-200.96 448-448 448zM512 0c-211.84 0-384 172.16-384 384s172.16 384 384 384c211.84 0 384-172.16 384-384s-172.16-384-384-384z" />
<glyph unicode="&#xe957;" glyph-name="charger" d="M864 832h-64v-128h-128v128h-64v-128h-64v-192c0-88.32 71.68-160 160-160v-224c0-93.44-30.4-128-112-128s-112 34.56-112 128v96c0 123.84-68.16 192-192 192s-192-70.080-192-192v-96h64v96c0 87.36 40.64 128 128 128s128-38.4 128-128v-96c0-129.28 57.6-192 176-192s176 64.64 176 192v224c88.32 0 160 71.68 160 160v192h-64v128zM864 512c0-52.8-43.2-96-96-96h-64c-52.8 0-96 43.2-96 96v128h256v-128z" />
<glyph unicode="&#xe958;" glyph-name="checkmark" d="M381.434 82.56l-251.199 251.2 45.44 45.12 205.439-205.44 485.12 488.96 45.44-44.8-530.24-535.040z" />
<glyph unicode="&#xe959;" glyph-name="checkmark-circle" d="M297.281 361.28l150.719-150.4 278.72 278.4-45.44 45.44-233.28-233.6-105.28 105.6-45.439-45.44zM64 384c0-247.040 200.96-448 448-448s448 200.96 448 448c0 247.040-200.96 448-448 448s-448-200.96-448-448zM128 384c0 211.84 172.16 384 384 384s384-172.16 384-384c0-211.84-172.16-384-384-384s-384 172.16-384 384z" />
<glyph unicode="&#xe95a;" glyph-name="checkmark-shield" d="M297.281 425.28l150.719-150.4 278.72 278.4-45.44 45.44-233.28-233.6-105.28 105.6-45.439-45.44zM500.16-29.76l11.84-4.8 12.131 4.918c130.31 52.186 371.869 148.928 371.869 477.642v288c0 35.2-28.8 64-64 64h-640c-35.2 0-64-28.8-64-64v-288c0-328.349 241.341-425.242 371.437-477.469l0.723-0.291zM192 448v288h640v-288c0-256.96-162.88-349.44-320-413.44-157.12 64-320 156.48-320 413.44z" />
<glyph unicode="&#xe95b;" glyph-name="checkmark-square" d="M297.281 361.28l150.719-150.4 278.72 278.4-45.44 45.44-233.28-233.6-105.28 105.6-45.439-45.44zM192 0h640c35.2 0 64 28.8 64 64v640c0 35.2-28.8 64-64 64h-640c-35.2 0-64-28.8-64-64v-640c0-35.2 28.8-64 64-64zM192 64v640h640v-640h-640z" />
<glyph unicode="&#xe95c;" glyph-name="chevron-down" d="M512 146.88l-374.719 374.4 45.44 45.44 329.279-329.6 329.28 329.6 45.44-45.44-374.72-374.4z" />
<glyph unicode="&#xe95d;" glyph-name="chevron-down-default" d="M511.997 272.163l-232.084 261.094-47.834-42.518 279.919-314.909 279.917 314.909-47.837 42.518-232.080-261.094z" />
<glyph unicode="&#xe95e;" glyph-name="chevron-left" d="M681.274 9.28l-374.399 374.72 374.399 374.719 45.44-45.44-329.6-329.279 329.6-329.28-45.44-45.44z" />
<glyph unicode="&#xe95f;" glyph-name="chevron-left-default" d="M400.16 383.997l261.094-232.083-42.518-47.834-314.908 279.917 314.908 279.917 42.518-47.834-261.094-232.083z" />
<glyph unicode="&#xe960;" glyph-name="chevron-right" d="M342.72 9.28l-45.439 45.44 329.599 329.28-329.599 329.279 45.439 45.44 374.4-374.719-374.4-374.72z" />
<glyph unicode="&#xe961;" glyph-name="chevron-right-default" d="M623.827 383.997l-261.094-232.083 42.522-47.834 314.906 279.917-314.906 279.917-42.522-47.834 261.094-232.083z" />
<glyph unicode="&#xe962;" glyph-name="chevron-up" d="M841.28 169.277l-329.28 329.6-329.279-329.6-45.44 45.44 374.719 374.4 374.72-374.4-45.44-45.44z" />
<glyph unicode="&#xe963;" glyph-name="chevron-up-default" d="M511.997 495.83l232.080-261.091 47.837 42.518-279.917 314.907-279.919-314.907 47.834-42.518 232.084 261.091z" />
<glyph unicode="&#xe964;" glyph-name="cicd" d="M640.454 576.002v95.997l-64.454 0.002 0.227-223.808h224v64.262l-115.184-0.454c92.89 77.091 242.957 13.462 242.957-115.856v-21.638c0-144.79-179.472-212.227-274.819-103.261l-234.198 267.658c-134.26 153.44-386.982 58.483-386.982-145.405v-21.638c0-186.979 219.452-277.898 351.837-161.782l-0.064-17.891v-95.997h64.454l-0.227 223.808h-224v-64.262l115.178 0.454c-92.872-77.379-243.178-13.75-243.178 115.67v21.638c0 144.794 179.472 212.226 274.819 103.261l234.198-267.658c134.259-153.44 386.982-58.483 386.982 145.405v21.638c0 186.872-219.203 277.795-351.61 161.981l0.064 17.877zM383.776 256.189l0.224-0.186v0.186h-0.224z" />
<glyph unicode="&#xe965;" glyph-name="circle" d="M512 0c-212.077 0-384 171.923-384 384s171.923 384 384 384c212.077 0 384-171.923 384-384s-171.923-384-384-384zM512-64c247.424 0 448 200.576 448 448s-200.576 448-448 448c-247.424 0-448-200.576-448-448s200.576-448 448-448z" />
<glyph unicode="&#xe966;" glyph-name="circle-dash" d="M951.472 296.566l-62.784 12.422c4.79 24.208 7.312 49.283 7.312 75.011s-2.522 50.803-7.312 75.011l62.784 12.422c5.594-28.278 8.528-57.514 8.528-87.434s-2.934-59.155-8.528-87.434zM884.541 632.916l-53.181-35.604c-28.054 41.903-64.144 77.994-106.048 106.048l35.603 53.182c48.854-32.708 90.918-74.771 123.626-123.626zM599.434 823.473l-12.422-62.783c-24.208 4.789-49.283 7.31-75.011 7.31s-50.803-2.521-75.011-7.31l-12.422 62.783c28.278 5.594 57.514 8.527 87.434 8.527s59.155-2.933 87.434-8.527zM263.084 756.541l35.604-53.182c-41.903-28.054-77.994-64.145-106.048-106.048l-53.182 35.604c32.708 48.855 74.771 90.918 123.626 123.626zM72.527 471.434c-5.594-28.278-8.527-57.514-8.527-87.434s2.933-59.155 8.527-87.434l62.783 12.422c-4.789 24.208-7.31 49.283-7.31 75.011s2.521 50.803 7.31 75.011l-62.783 12.422zM139.459 135.085l53.182 35.603c28.054-41.904 64.145-77.994 106.048-106.048l-35.604-53.181c-48.855 32.707-90.918 74.771-123.626 123.626zM424.566-55.472l12.422 62.784c24.208-4.79 49.283-7.312 75.011-7.312s50.803 2.522 75.011 7.312l12.422-62.784c-28.278-5.594-57.514-8.528-87.434-8.528s-59.155 2.934-87.434 8.528zM760.915 11.459l-35.603 53.181c41.904 28.054 77.994 64.144 106.048 106.048l53.181-35.603c-32.707-48.854-74.771-90.918-123.626-123.626z" />
<glyph unicode="&#xe967;" glyph-name="city-hall" d="M544 640v-66.656c69.389-11.638 126.154-60.496 149.075-125.344h42.925v-64h-32v-96h224v-64h-32v-288h-768v288h-32v64h224v96h-32v64h42.925c22.922 64.848 79.686 113.706 149.075 125.344v226.656c0 17.673 14.326 32 32 32s32-14.327 32-32h160v-160h-160zM384 288h256v96h-256v-96zM320 224v-224h128v128c0 35.347 28.653 64 64 64s64-28.653 64-64v-128h128v224h-384zM768 224v-224h64v224h-64zM192 224v-224h64v224h-64zM512 512c-47.379 0-88.746-25.741-110.877-64h221.754c-22.131 38.259-63.498 64-110.877 64zM544 704h96v32h-96v-32z" />
<glyph unicode="&#xe968;" glyph-name="clipboard-shield-exclamation" d="M352 736c0 35.346 28.653 64 64 64h192c35.347 0 64-28.654 64-64h96c35.274 0 64-28.727 64-64v-320h-64v320h-96c0-35.346-28.653-64-64-64h-192c-35.347 0-64 28.654-64 64h-96v-640h480v-64h-480c-35.273 0-64 28.726-64 64v640c0 35.273 28.727 64 64 64h96zM608 736h-192v-64h192v64zM512 128l-49.504 33.002c-89.024 59.35-142.496 159.264-142.496 266.256v15.84c0 22.038 14.102 41.603 35.008 48.573l156.992 52.33 156.992-52.33c20.906-6.97 35.008-26.534 35.008-48.573v-15.84c0-106.992-53.472-206.906-142.496-266.256l-49.504-33.002zM640 433.872l-128 42.666-128-42.666v-6.614c0-85.594 42.778-165.523 113.997-213.005l14.003-9.334 14.003 9.334c71.219 47.482 113.997 127.411 113.997 213.005v6.614zM896 256h-64v-192h64v192zM832 0h64v-64h-64v64z" />
<glyph unicode="&#xe969;" glyph-name="clipboard-shield-search" d="M288 736c0 35.346 28.654 64 64 64h192c35.347 0 64-28.654 64-64h96c35.274 0 64-28.727 64-64v-288h-64v288h-96c0-35.346-28.653-64-64-64h-192c-35.346 0-64 28.654-64 64h-96v-640h352v-64h-352c-35.273 0-64 28.726-64 64v640c0 35.273 28.727 64 64 64h96zM544 736h-192v-64h192v64zM398.496 161.002l49.504-33.002 49.504 33.002c89.024 59.35 142.496 159.264 142.496 266.256v15.84c0 22.038-14.102 41.603-35.008 48.573l-156.992 52.33-156.991-52.33c-20.907-6.97-35.009-26.534-35.009-48.573v-15.84c0-106.992 53.472-206.906 142.496-266.256zM448 476.538l128-42.666v-6.614c0-85.594-42.778-165.523-113.997-213.005l-14.003-9.334-14.003 9.334c-71.219 47.482-113.997 127.411-113.997 213.005v6.614l128 42.666zM873.92 67.338l61.843-61.846-45.254-45.254-61.846 61.843c-22.198-13.987-48.486-22.080-76.662-22.080-79.53 0-144 64.47-144 144s64.47 144 144 144c79.53 0 144-64.47 144-144 0-28.176-8.093-54.464-22.080-76.662zM752 64c44.182 0 80 35.818 80 80s-35.818 80-80 80c-44.182 0-80-35.818-80-80s35.818-80 80-80z" />
<glyph unicode="&#xe96a;" glyph-name="closed-caption" d="M768 192h-112c-53.021 0-96 42.979-96 96v192c0 53.021 42.979 96 96 96h80v-64h-80c-17.674 0-32-14.326-32-32v-192c0-17.674 14.326-32 32-32h112v-64zM464 192h-112c-53.019 0-96 42.979-96 96v192c0 53.021 42.981 96 96 96h80v-64h-80c-17.674 0-32-14.326-32-32v-192c0-17.674 14.326-32 32-32h112v-64zM96 608v-448c0-53.021 42.981-96 96-96h640c53.021 0 96 42.979 96 96v448c0 53.019-42.979 96-96 96h-640c-53.019 0-96-42.981-96-96zM192 640h640c17.674 0 32-14.327 32-32v-448c0-17.674-14.326-32-32-32h-640c-17.673 0-32 14.326-32 32v448c0 17.673 14.327 32 32 32z" />
<glyph unicode="&#xe96b;" glyph-name="cloud" d="M768 64h-512c-105.92 0-192 86.080-192 192v64c0 105.92 86.080 192 192 192 0 105.92 86.080 192 192 192h96c105.92 0 192-86.080 192-192v-64h25.28c101.76 0 188.8-76.16 198.080-173.12 5.12-54.080-12.8-107.84-48.96-147.84-36.48-40-88-62.72-142.080-62.72l-0.32-0.32zM256 448c-70.72 0-128-57.28-128-128v-64c0-70.72 57.28-128 128-128h512c35.84 0 70.4 15.36 94.72 41.92 24.64 26.88 36.16 62.080 32.64 98.88-6.080 64.64-65.28 115.2-134.4 115.2h-89.28v128c0 70.72-57.28 128-128 128h-96c-70.72 0-128-57.28-128-128v-64h-63.68z" />
<glyph unicode="&#xe96c;" glyph-name="cloud-check" d="M256 160h192v64h-192c-70.72 0-128 57.28-128 128v64c0 70.72 57.28 128 128 128h64v64c0 70.72 57.28 128 128 128h96c70.72 0 128-57.28 128-128v-128h96c61.44 0 116.8-44.16 128.64-102.4l62.72 12.8c-17.92 88.96-98.56 153.6-191.36 153.6h-32v64c0 105.92-86.080 192-192 192h-96c-105.92 0-192-86.080-192-192-105.92 0-192-86.080-192-192v-64c0-105.92 86.080-192 192-192zM521.28 105.28l150.72-150.4 278.72 278.4-45.44 45.44-233.28-233.6-105.28 105.6-45.44-45.44z" />
<glyph unicode="&#xe96d;" glyph-name="cloud-data-transfer" d="M959.040 402.88c-9.28 97.28-96.32 173.12-198.080 173.12h-25.28v64c0 105.92-86.080 192-192 192h-96c-105.92 0-192-86.080-192-192-105.92 0-192-86.080-192-192v-64c0-90.88 64.64-169.92 153.28-188.16l12.8 62.72c-59.2 12.16-102.080 64.96-102.080 125.44v64c0 70.72 57.28 128 128 128h64v64c0 70.72 57.28 128 128 128h96c70.72 0 128-57.28 128-128v-128h89.28c69.12 0 128-50.56 134.4-115.2 2.88-30.080-4.48-59.2-21.12-83.84l53.12-35.84c24.96 37.12 35.84 80.64 31.68 125.76zM521.28 278.717l45.44-45.44 73.28 73.6v-370.88h64v370.88l73.28-73.6 45.44 45.44-150.72 150.4-150.72-150.4zM416 416v-370.88l73.28 73.6 45.44-45.44-150.72-150.4-150.719 150.4 45.44 45.44 73.279-73.6v370.88h64z" />
<glyph unicode="&#xe96e;" glyph-name="cloud-disable" d="M320 576h-64c-70.72 0-128-57.28-128-128v-64c0-70.72 57.28-128 128-128h192v-64h-192c-105.92 0-192 86.080-192 192v64c0 105.92 86.080 192 192 192 0 105.92 86.080 192 192 192h96c105.92 0 192-86.080 192-192v-64h32c92.8 0 173.44-64.64 191.36-153.6l-62.72-12.8c-11.84 58.24-67.2 102.4-128.64 102.4h-96v128c0 70.72-57.28 128-128 128h-96c-70.72 0-128-57.28-128-128v-64zM512 160c0 123.52 100.48 224 224 224s224-100.48 224-224c0-123.52-100.48-224-224-224s-224 100.48-224 224zM736 320c-88.32 0-160-71.68-160-160l0.32 0.32c0-34.56 11.2-66.24 29.76-92.48l222.4 222.4c-26.24 18.56-57.92 29.76-92.48 29.76zM652.8 24c24.32-15.040 52.48-24 83.2-24 88.32 0 160 71.68 160 160 0 30.4-8.96 58.88-24 83.2l-219.2-219.2z" />
<glyph unicode="&#xe96f;" glyph-name="cloud-download" d="M760.96 576c101.76 0 188.8-75.84 198.080-173.12v-0.32c5.12-54.080-12.8-107.84-48.96-147.84-36.16-39.68-88-62.72-142.080-62.72h-96v64h96c35.84 0 70.4 15.36 94.72 41.92 24.64 27.2 36.16 62.080 32.64 98.88-6.4 64.64-65.28 115.2-134.4 115.2h-89.28v128c0 70.72-57.28 128-128 128h-96c-70.72 0-128-57.28-128-128v-64h-64c-70.72 0-128-57.28-128-128v-64c0-70.72 57.28-128 128-128h96v-64h-96c-105.92 0-192 86.080-192 192v64c0 105.92 86.080 192 192 192 0 105.92 86.080 192 192 192h96c105.92 0 192-86.080 192-192v-64h25.28zM544 416v-370.88l105.28 105.6 45.44-45.44-182.72-182.4-182.72 182.4 45.44 45.44 105.28-105.6v370.88h64z" />
<glyph unicode="&#xe970;" glyph-name="cloud-lock" d="M320 576h-64v0.32c-70.72 0-128-57.28-128-128v-64c0-70.72 57.28-128 128-128h255.68v-64h-256c-105.92 0-192 86.080-192 192v64c0 105.92 86.080 192 192 192 0 105.92 86.080 192 192 192h96c105.92 0 192-86.080 192-192v-64h32c88.64 0 163.2-46.080 190.080-116.8l-59.84-22.72c-17.28 45.76-68.16 75.2-129.92 75.2h-96v128c0 70.72-57.28 128-128 128h-96c-70.72 0-128-57.28-128-128v-64zM896 288v-64c35.2 0 64-28.8 64-64v-160c0-35.2-28.8-64-64-64h-256c-35.2 0-64 28.8-64 64v160c0 35.2 28.8 64 64 64v64c0 52.8 43.2 96 96 96h64c52.8 0 96-43.2 96-96zM736 320c-17.6 0-32-14.4-32-32v-64h128v64c0 17.6-14.4 32-32 32h-64zM640 160v-160h256v160h-256z" />
<glyph unicode="&#xe971;" glyph-name="cloud-off" d="M702.72 620.159l202.56 202.56 45.44-45.44-832-831.359-45.12 45.12 95.040 95.040c-62.4 32.32-104.64 97.28-104.64 170.24v64c0 105.92 86.080 192 192 192 0 105.919 86.080 191.999 192 191.999h96c65.28 0 123.84-32.32 158.72-84.16zM128 320v-64c0-55.68 37.12-104.96 88.96-121.6l439.040 438.72c-22.080 40.319-64.96 66.879-112 66.879h-96c-70.72 0-128-57.28-128-127.999v-64h-64c-70.72 0-128-57.28-128-128zM704 448h57.28l-0.32-0.32c101.76 0 188.8-75.84 198.080-173.12 5.12-54.080-12.8-107.84-48.96-147.84-36.16-39.68-88-62.72-142.080-62.72h-395.84v64h396.16c35.84 0 70.4 15.36 94.72 41.92 24.64 27.2 36.16 62.080 32.64 98.88-6.4 64.64-65.28 115.2-134.4 115.2h-57.28v64z" />
<glyph unicode="&#xe972;" glyph-name="cloud-office" d="M320.32 575.68h-64v0.32c-70.72 0-128-57.28-128-128v-64c0-70.72 57.28-128 128-128h96v-64h-96.32c-105.92 0-192 86.080-192 192v64c0 105.92 86.080 192 192 192 0 105.92 86.080 192 192 192h96c105.92 0 192-86.080 192-192v-64h32c88.64 0 163.2-46.080 190.080-116.8l-59.84-22.72c-17.28 45.76-68.16 75.2-129.92 75.2h-96v128c0 70.72-57.28 128-128 128h-96c-70.72 0-128-57.28-128-128v-64zM640 256h-64v-64h64v64zM576 128h64v-64h-64v64zM448 0h-64v-64h576v64h-64v256l-128 42.666v85.334h-320v-384zM512 320h192v-320h-192v320zM832 0h-64v231.203l64-21.331v-209.872z" />
<glyph unicode="&#xe973;" glyph-name="cloud-refresh" d="M320 576h-64l-0.32 0.32c-70.72 0-128-57.28-128-128v-64c0-70.72 57.28-128 128-128h192v-64h-192c-105.92 0-192 86.080-192 192v64c0 105.92 86.080 192 192 192 0 105.92 86.080 192 192 192h96c105.92 0 192-86.080 192-192v-64h32c88.64 0 163.2-46.080 190.080-116.8l-59.84-22.72c-17.28 45.76-68.16 75.2-129.92 75.2h-96v128c0 70.72-57.28 128-128 128h-96c-70.72 0-128-57.28-128-128v-64zM903.68 307.84l42.88 42.88c5.12 4.8 13.76 1.28 13.76-5.76v-144.96c0-4.48-3.52-8-8-8h-144.96c-7.36 0-10.88 8.64-5.76 13.76l56.96 56.96c-30.080 36.16-74.56 57.28-122.56 57.28-88.32 0-160-71.68-160-160s71.68-160 160-160c68.48 0 129.28 43.52 151.36 108.16l60.48-20.8c-31.040-90.56-116.16-151.36-211.84-151.36-123.52 0-224 100.48-224 224s100.48 224 224 224c64.96 0 125.44-28.16 167.68-76.16z" />
<glyph unicode="&#xe974;" glyph-name="cloud-remove" d="M320 576h-64c-70.72 0-128-57.28-128-128v-64c0-70.72 57.28-128 128-128h256v-64h-256c-105.92 0-192 86.080-192 192v64c0 105.92 86.080 192 192 192 0 105.92 86.080 192 192 192h96c105.92 0 192-86.080 192-192v-64h32c112.96 0 192-79.040 192-192h-64c0 77.76-50.24 128-128 128h-96v128c0 70.72-57.28 128-128 128h-96c-70.72 0-128-57.28-128-128v-64zM768 165.76l137.28 137.6 45.44-45.44-137.6-137.28 137.6-137.28-45.44-45.44-137.28 137.28-137.28-137.28-45.44 45.44 137.6 137.28-137.6 137.28 45.44 45.44 137.28-137.6z" />
<glyph unicode="&#xe975;" glyph-name="cloud-repository" d="M539.994 134.115c-15.405 13.862-27.994 33.283-27.994 57.885h64c0-0.998 0.211-4.378 6.806-10.314 6.874-6.186 18.365-12.838 34.685-18.87 32.461-11.997 76.55-18.816 118.509-18.816s86.048 6.819 118.509 18.816c16.32 6.032 27.811 12.685 34.685 18.87 6.595 5.936 6.806 9.315 6.806 10.314h64c0-24.602-12.589-44.022-27.994-57.885-15.126-13.616-34.835-23.763-55.312-31.331-41.142-15.203-93.053-22.784-140.694-22.784s-99.552 7.581-140.694 22.784c-20.477 7.568-40.186 17.715-55.312 31.331zM512 47.994v290.88h64v-290.88c0-0.102-0.006-0.656 0.685-1.926 0.806-1.478 2.525-3.85 5.942-6.874 7.043-6.246 18.752-13.053 35.152-19.29 32.602-12.403 76.659-19.91 118.221-19.91s85.619 7.507 118.221 19.91c16.4 6.237 28.109 13.043 35.152 19.29 3.418 3.024 5.136 5.395 5.942 6.874 0.691 1.27 0.685 1.814 0.685 1.92v290.886h64v-290.88c0-24.384-13.184-43.408-28.173-56.694-14.957-13.258-34.448-23.453-54.848-31.213-40.998-15.597-92.941-24.093-140.979-24.093s-99.981 8.496-140.979 24.093c-20.4 7.76-39.891 17.955-54.848 31.213-14.989 13.286-28.173 32.31-28.173 56.694zM576.624 338.016c-0.614-1.251-0.624-1.846-0.624-2.016s0.010-0.765 0.624-2.016c0.672-1.37 2.090-3.539 4.922-6.326 5.843-5.757 15.939-12.413 30.998-18.688 29.974-12.49 73.606-20.97 123.456-20.97s93.482 8.48 123.456 20.97c15.059 6.275 25.155 12.931 30.998 18.688 2.832 2.787 4.25 4.957 4.922 6.326 0.614 1.251 0.624 1.846 0.624 2.016s-0.010 0.765-0.624 2.016c-0.672 1.37-2.090 3.539-4.922 6.326-5.843 5.757-15.939 12.413-30.998 18.688-29.974 12.49-73.606 20.97-123.456 20.97s-93.482-8.48-123.456-20.97c-15.059-6.275-25.155-12.931-30.998-18.688-2.832-2.787-4.25-4.957-4.922-6.326zM587.926 422.106c39.517 16.464 91.885 25.894 148.074 25.894s108.557-9.43 148.074-25.894c19.686-8.202 37.706-18.784 51.296-32.17 13.699-13.498 24.63-31.744 24.63-53.936s-10.931-40.438-24.63-53.936c-13.59-13.386-31.61-23.968-51.296-32.17-39.517-16.464-91.885-25.894-148.074-25.894s-108.557 9.43-148.074 25.894c-19.686 8.202-37.706 18.784-51.296 32.17-13.699 13.498-24.63 31.744-24.63 53.936s10.931 40.438 24.63 53.936c13.59 13.386 31.61 23.968 51.296 32.17zM256 192h192v64h-192c-70.72 0-128 57.28-128 128v64c0 70.72 57.28 128 128 128h64v64c0 70.72 57.28 128 128 128h96c70.72 0 128-57.28 128-128v-128h96c20.080 0 38.323-3.35 54.342-9.658l47.773 47.773c-28.877 16.656-63.517 25.885-102.115 25.885h-32v64c0 105.92-86.080 192-192 192h-96c-105.92 0-192-86.080-192-192-105.92 0-192-86.080-192-192v-64c0-105.92 86.080-192 192-192z" />
<glyph unicode="&#xe976;" glyph-name="cloud-run" d="M320 576h-64c-70.72 0-128-57.28-128-128v-64c0-70.72 57.28-128 128-128h256v-64h-256c-105.92 0-192 86.080-192 192v64c0 105.92 86.080 192 192 192 0 105.92 86.080 192 192 192h96c105.92 0 192-86.080 192-192v-64h32c112.96 0 192-79.040 192-192h-64c0 77.76-50.24 128-128 128h-96v128c0 70.72-57.28 128-128 128h-96c-70.72 0-128-57.28-128-128v-64zM702.045 313.706l249.133-151.459c24.624-14.97 27.475-52.925-0.442-68.96l-249.818-151.862c-25.133-14.378-60.918 1.565-60.918 34.778v303.398c0 31.891 35.341 51.149 62.045 34.106zM704 18.186l180.47 109.715-180.47 109.718v-219.434z" />
<glyph unicode="&#xe977;" glyph-name="cloud-sap" d="M959.36 370.88c-9.28 97.28-96.32 173.12-198.080 173.12h-25.28v64c0 105.92-86.080 192-192 192h-96c-105.92 0-192-86.080-192-192-105.92 0-192-86.080-192-192v-64c0-105.92 86.080-192 192-192h80v64h-80c-70.72 0-128 57.28-128 128v64c0 70.72 57.28 128 128 128h64v64c0 70.72 57.28 128 128 128h96c70.72 0 128-57.28 128-128v-128h89.28c69.12 0 128-50.56 134.4-115.2 0.566-5.914 0.742-11.779 0.541-17.571-0.051-1.446-0.224-4.33-0.224-4.33l63.363-8.762c0 0 0.294 3.322 0.406 4.989 0.714 10.4 0.589 20.912-0.406 31.434v0.32zM743.693 102.838h11.098c14.816 0 26.611 4.902 26.611 20.55 0 15.155-11.795 20.035-26.611 20.035h-11.098v-40.586zM619.203 76.685c4.762-1.792 10.272-2.864 16.144-2.864 5.738 0 11.12 1.040 15.837 2.726l-15.654 50.55h-0.342l-15.984-50.413zM448-29.261h258.739l253.261 253.261h-512v-253.261zM701.453 176.397h50.397l-0.006-0.051c48.176 0 70.806-17.158 70.806-54.57 0-33.613-23.302-53.642-62.65-53.642h-16.294v-48.416h-74.672l-7.392 23.155c-7.898-2.602-16.822-4.026-26.282-4.026-9.696 0-18.854 1.526-26.896 4.246l-7.686-23.376h-45.766l5.043 13.552-1.85-1.616c-11.411-9.168-25.69-14.214-43.37-14.557h-2.627c-20.32 0-40.227 5.6-57.046 15.174l15.565 30.925c16.867-9.968 27.459-12.192 41.738-11.907 7.408 0.166 12.762 1.507 16.246 5.126 2.115 2.166 3.206 4.912 3.322 7.837 0.131 8.035-11.299 11.805-25.299 16.122-11.347 3.558-24.195 8.307-34.269 15.69-11.901 8.765-17.587 19.725-17.302 35.168 0.189 11.274 4.358 21.402 12.064 29.408 11.085 11.446 28.957 18.438 50.406 18.438h0.112c18.387-0.042 40.861-5.242 57.082-13.526l-17.51-30.499c-17.773 8.595-26.726 9.414-36.88 9.93-15.059 0.803-22.694-4.582-22.81-10.387-0.131-7.098 14.298-13.51 27.853-17.872 20.563-6.518 46.723-15.261 50.698-40.512l37.616 100.186h43.635l44.026-119.83v119.83zM775.731-3.37v-18.89h2.851v8.198h3.206l5.171-8.198h3.206l-5.526 8.198c2.762 0.342 4.992 1.949 4.992 5.347 0 3.722-2.278 5.344-6.771 5.344h-7.13zM778.582-5.862h3.92c1.93 0 4.099-0.314 4.099-2.672 0-2.95-2.198-3.21-4.634-3.21h-3.386v5.882zM782.147 3.584c-9.043 0-16.752-6.97-16.752-16.397 0-9.494 7.706-16.573 16.752-16.573 8.918 0 16.397 7.075 16.397 16.573 0 9.427-7.478 16.397-16.397 16.397zM782.147 0.909c7.379 0 13.187-5.962 13.187-13.722 0-7.894-5.808-13.722-13.187-13.722-7.504 0-13.546 5.827-13.546 13.722 0 7.76 6.042 13.722 13.546 13.722z" />
<glyph unicode="&#xe978;" glyph-name="cloud-search" d="M320 576h-64c-70.72 0-128-57.28-128-128v-64c0-70.72 57.28-128 128-128h192v-64h-192c-105.92 0-192 86.080-192 192v64c0 105.92 86.080 192 192 192 0 105.92 86.080 192 192 192h96c105.92 0 192-86.080 192-192v-64h32c112.96 0 192-79.040 192-192h-64c0 77.76-50.24 128-128 128h-96v128c0 70.72-57.28 128-128 128h-96c-70.72 0-128-57.28-128-128v-64zM704 384c105.92 0 192-86.080 192-192l-0.32-0.32c0-41.28-13.12-79.68-35.52-111.040l106.24-106.24-45.12-45.12-106.24 106.24c-31.36-22.080-69.76-35.52-111.040-35.52-105.92 0-192 86.080-192 192s86.080 192 192 192zM704 320c-70.72 0-128-57.28-128-128s57.28-128 128-128c70.72 0 128 57.28 128 128s-57.28 128-128 128z" />
<glyph unicode="&#xe979;" glyph-name="cloud-settings" d="M256 192h192v64h-192c-70.72 0-128 57.28-128 128v64c0 70.72 57.28 128 128 128h64v64c0 70.72 57.28 128 128 128h96c70.72 0 128-57.28 128-128v-128h96c77.76 0 128-50.24 128-128h64c0 112.96-79.040 192-192 192h-32v64c0 105.92-86.080 192-192 192h-96c-105.92 0-192-86.080-192-192-105.92 0-192-86.080-192-192v-64c0-105.92 86.080-192 192-192zM887.36 211.2c5.44-16 8.64-33.28 8.64-51.2s-3.52-34.88-8.96-50.88l57.28-33.28-32.32-55.36-57.28 33.28c-22.4-25.28-52.48-43.52-86.72-50.56v-67.2h-64v67.2c-34.24 6.72-64.32 24.96-86.72 50.24l-56.96-33.28-32.32 55.36 56.96 33.28c-5.44 16-8.64 33.28-8.64 51.2s3.52 34.88 8.96 50.88l-57.28 33.28 32.32 55.36 57.28-33.28c22.4 25.28 52.48 43.52 86.72 50.56v67.2h64v-67.2c34.24-6.72 64.32-24.96 86.72-50.24l56.96 33.28 32.32-55.36-56.96-33.28zM640 160c0-53.12 42.88-96 96-96s96 42.88 96 96c0 53.12-42.88 96-96 96s-96-42.88-96-96z" />
<glyph unicode="&#xe97a;" glyph-name="cloud-stack-it" d="M256.32 575.68h64v64c0 70.72 57.28 128 128 128h96c70.72 0 128-57.28 128-128v-128h96c61.76 0 112.64-29.44 129.92-75.2l59.84 22.72c-26.88 70.72-101.44 116.8-190.080 116.8h-32v64c0 105.92-86.080 192-192 192h-96c-105.92 0-192-86.080-192-192-105.92 0-192-86.080-192-192v-64c0-105.92 86.080-192 192-192h192.32v64h-192c-70.72 0-128 57.28-128 128v64c0 70.72 57.28 128 128 128v-0.32zM600.147 320h349.11l-20.333-89.981h-242.688l-23.008-106.65h-105.331l42.25 196.63zM480-24.573h349.11l42.25 196.627h-105.331l-23.008-106.646h-244.058l-18.963-89.981z" />
<glyph unicode="&#xe97b;" glyph-name="cloud-subtract" d="M256 192l512.32 0.32c54.080 0 105.6 22.72 142.080 62.72 36.16 40 54.080 93.76 48.96 147.84-9.28 96.96-96.32 173.12-198.080 173.12h-25.28v64c0 105.92-86.080 192-192 192h-96c-105.92 0-192-86.080-192-192-105.92 0-192-86.080-192-192v-64c0-105.92 86.080-192 192-192zM128 448c0 70.72 57.28 128 128 128h63.68v64c0 70.72 57.28 128 128 128h96c70.72 0 128-57.28 128-128v-128h89.28c69.12 0 128.32-50.56 134.4-115.2 3.52-36.8-8-72-32.64-98.88-24.32-26.56-58.88-41.92-94.72-41.92h-512c-70.72 0-128 57.28-128 128v64zM576 0v64h320v-64h-320z" />
<glyph unicode="&#xe97c;" glyph-name="cloud-sync" d="M256 576h64v64c0 70.72 57.28 128 128 128h96c70.72 0 128-57.28 128-128v-128h96c41.92 0 81.92-20.16 106.88-54.080l51.52 38.080c-37.12 50.24-96.32 80-158.4 80h-32v64c0 105.92-86.080 192-192 192h-96c-105.92 0-192-86.080-192-192-105.92 0-192-86.080-192-192v-64c0-105.92 86.080-192 192-192h192v64h-192c-70.72 0-128 57.28-128 128v64c0 70.72 57.28 128 128 128zM903.68 307.84c-41.6 47.36-101.76 76.16-167.68 76.16-110.080 0-202.88-78.72-220.8-186.88l63.040-10.56c12.8 77.44 79.36 133.44 157.76 133.44 48.64 0 92.8-21.44 122.56-57.28l-56.96-56.96c-5.12-5.12-1.6-13.76 5.76-13.76h144.96c4.48 0 8 3.52 8 8v144.96c0 7.040-8.64 10.56-13.76 5.76l-42.88-42.88zM613.44 57.277c30.72-36.16 75.52-57.28 122.56-57.28l0.32 0.32c78.4 0 144.96 56 157.76 133.44l63.040-10.56c-18.24-108.48-111.040-187.2-221.12-187.2-64.64 0-125.76 27.84-168 75.84l-42.56-42.56c-5.12-4.8-13.76-1.28-13.76 5.76v144.96c0 4.48 3.52 8 8 8h144.96c7.36 0 10.88-8.64 5.76-13.76l-56.96-56.96z" />
<glyph unicode="&#xe97d;" glyph-name="cloud-upload" d="M760.96 512c101.76 0 188.8-75.84 198.080-173.12v-0.32c5.12-54.080-12.8-107.84-48.96-147.84-36.16-39.68-88-62.72-142.080-62.72h-96v64h96c35.84 0 70.4 15.36 94.72 41.92 24.64 27.2 36.16 62.080 32.64 98.88-6.4 64.64-65.28 115.2-134.4 115.2h-89.28v128c0 70.72-57.28 128-128 128h-96c-70.72 0-128-57.28-128-128v-64h-64c-70.72 0-128-57.28-128-128v-64c0-70.72 57.28-128 128-128h96v-64h-96c-105.92 0-192 86.080-192 192v64c0 105.92 86.080 192 192 192 0 105.92 86.080 192 192 192h96c105.92 0 192-86.080 192-192v-64h25.28zM512 493.117l182.72-182.4-45.44-45.44-105.28 105.6v-370.88h-64v370.88l-105.28-105.6-45.44 45.44 182.72 182.4z" />
<glyph unicode="&#xe97e;" glyph-name="cloud-warning" d="M256 192h160v64h-160c-70.72 0-128 57.28-128 128v64c0 70.72 57.28 128 128 128h64v64c0 70.72 57.28 128 128 128h96c70.72 0 128-57.28 128-128v-128h96c77.76 0 128-50.24 128-128h64c0 112.96-79.040 192-192 192h-32v64c0 105.92-86.080 192-192 192h-96c-105.92 0-192-86.080-192-192-105.92 0-192-86.080-192-192v-64c0-105.92 86.080-192 192-192zM704 64c0-17.674-14.326-32-32-32s-32 14.326-32 32c0 17.674 14.326 32 32 32s32-14.326 32-32zM704 256h-64v-128h64v128zM388.48-37.443c9.6-16.64 26.88-26.56 45.76-26.56h469.76c19.2 0 36.16 9.92 45.76 26.56 9.92 16.96 9.92 38.4 0 55.36l-225.28 386.56c-11.52 19.84-32.32 31.68-55.36 31.68s-43.84-11.84-55.36-31.68l-225.28-386.56c-9.92-16.96-9.92-38.080 0-55.36zM886.080-0.003h-433.92l216.96 372.48 216.96-372.48z" />
<glyph unicode="&#xe97f;" glyph-name="cog" d="M511.997 224c-88.32 0-160 71.68-160 160s71.68 160 160 160c88.32 0 160-71.68 160-160s-71.68-160-160-160zM511.997 480c-52.8 0-96-43.2-96-96s43.2-96 96-96c52.8 0 96 43.2 96 96s-43.2 96-96 96zM575.997-32h-128c-35.2 0-64 28.8-64 64v58.88c-22.080 9.6-42.56 21.44-61.76 35.52l-50.881-29.44c-14.72-8.64-32-10.88-48.64-6.4s-30.4 15.040-38.72 29.76l-64 110.72c-17.6 30.4-7.040 69.76 23.36 87.36l50.88 29.44c-1.28 12.16-2.24 24-2.24 35.84s0.64 23.68 2.24 35.84l-50.88 29.44c-14.72 8.64-25.28 22.4-29.76 38.72-4.48 16.64-2.24 33.92 6.4 48.64l64 110.719c8.64 14.72 22.4 25.28 38.72 29.76 16.64 4.48 33.6 2.24 48.64-6.4l50.881-29.44c19.2 14.080 40 25.92 61.76 35.52v58.88c0 35.2 28.8 64 64 64h128c35.2 0 64-28.8 64-64v-58.88c22.080-9.6 42.56-21.44 61.76-35.52l50.88 29.44c14.72 8.64 32 10.88 48.64 6.4s30.4-15.040 38.72-29.76l64-110.719c8.64-14.72 10.88-32 6.4-48.64s-15.040-30.4-29.76-38.72l-50.88-29.44c1.28-12.16 2.24-24 2.24-35.84s-0.64-23.68-2.24-35.84l50.88-29.44c30.4-17.6 40.96-56.96 23.36-87.36l-64-110.72c-8.64-14.72-22.4-25.28-38.72-29.76s-33.6-2.24-48.64 6.4l-50.88 29.44c-19.2-14.080-40-25.92-61.76-35.52v-58.88c0-35.2-28.8-64-64-64zM328.637 204.16l17.28-14.72c23.68-20.48 50.88-36.16 80.96-46.72l21.44-7.68v-103.36h128v103.36l21.44 7.68c29.76 10.56 56.96 26.24 80.96 46.72l17.28 14.72 89.6-51.52 80 138.56-16-27.84-89.28 51.52 4.16 22.080c2.88 16.32 4.48 31.68 4.48 46.72s-1.6 30.4-4.48 46.72l-4.16 22.080 89.28 51.52-64 110.719-89.6-51.519-17.28 14.719c-23.68 20.48-50.88 36.16-80.96 46.72l-21.44 7.68v103.36h-128v-103.36l-21.44-7.68c-29.76-10.56-56.96-26.24-80.96-46.72l-17.28-14.719-89.601 51.519-64-110.719 89.28-51.52-4.16-22.080c-2.88-16.32-4.48-31.68-4.48-46.72s1.6-30.4 4.48-46.72l4.16-22.080-89.28-51.52 64-110.72 89.601 51.52z" />
<glyph unicode="&#xe980;" glyph-name="cog-hand-give" d="M424.966 501.76l-56.96-33.28v-0.32l-32.32 55.36 56.96 33.28c-5.44 16-8.64 33.28-8.64 51.2s3.52 34.88 8.96 50.88l-57.28 33.28 32.32 55.36 57.28-33.28c22.4 25.28 52.48 43.52 86.72 50.56v67.2h64v-66.88c34.24-6.72 64.32-24.96 86.72-50.24l56.96 33.28 32.32-55.36-56.96-33.28c5.44-16 8.64-33.28 8.64-51.2s-3.52-34.88-8.96-50.88l57.28-33.28-32.32-55.36-57.28 33.28c-22.4-25.28-52.48-43.52-86.72-50.56v-67.2h-64v67.2c-34.24 6.72-64.32 24.96-86.72 50.24zM640.006 608c0 53.12-42.88 96-96 96s-96-42.88-96-96c0-53.12 42.88-96 96-96s96 42.88 96 96zM596.48 192h299.52v-0.32c35.2 0 64-28.8 64-64v-35.84c0-32-24-59.52-56-63.36l-487.68-60.8-288.32 28.8v-60.48h-64v448h64v-64h432c26.56 0 48-21.44 48-48v-43.84c0-13.44-4.48-25.92-11.52-36.16zM415.68 32l480.32 60.16v35.52h-544v32l-5.76 31.36 197.76 36.8v27.84h-416v-194.88l287.68-28.8z" />
<glyph unicode="&#xe981;" glyph-name="cog-play" d="M463.997 237.76c-7.68 0-15.68 1.92-22.72 5.76-15.68 8.32-25.28 24.64-25.28 42.24v196.16c0 17.6 9.6 33.92 25.28 42.24s34.56 7.36 49.28-2.24l147.2-98.24c13.44-8.96 21.44-24 21.44-40s-8-31.040-21.44-40l-147.2-98.24c-8-5.44-17.28-8-26.56-8v0.32zM479.997 452.16v-136.32l102.4 68.16-102.4 68.16zM575.997-32h-128c-35.2 0-64 28.8-64 64v58.88c-22.080 9.6-42.56 21.44-61.76 35.52l-50.881-29.44c-14.72-8.64-32-10.88-48.64-6.4s-30.4 15.040-38.72 29.76l-64 110.72c-17.6 30.4-7.040 69.76 23.36 87.36l50.88 29.44c-1.28 12.16-2.24 24-2.24 35.84s0.64 23.68 2.24 35.84l-50.88 29.44c-14.72 8.64-25.28 22.4-29.76 38.72-4.48 16.64-2.24 33.92 6.4 48.64l64 110.719c8.64 14.72 22.4 25.28 38.72 29.76 16.64 4.48 33.92 2.24 48.64-6.4l50.881-29.44c19.2 14.080 40 25.92 61.76 35.52v58.88c0 35.2 28.8 64 64 64h128c35.2 0 64-28.8 64-64v-58.88c22.080-9.6 42.56-21.44 61.76-35.52l50.88 29.44c14.72 8.64 32 10.88 48.64 6.4s30.4-15.040 38.72-29.76l64-110.719c8.64-14.72 10.88-32 6.4-48.64s-15.040-30.4-29.76-38.72l-50.88-29.44c1.28-12.16 2.24-24 2.24-35.84s-0.64-23.68-2.24-35.84l50.88-29.44c30.4-17.6 40.96-56.96 23.36-87.36l-64-110.72c-8.64-14.72-22.4-25.28-38.72-29.76s-33.6-2.24-48.64 6.4l-50.88 29.44c-19.2-14.080-40-25.92-61.76-35.52v-58.88c0-35.2-28.8-64-64-64zM328.637 204.16l17.28-14.72c23.68-20.48 50.88-36.16 80.96-46.72l21.44-7.68v-103.36h128v103.36l21.44 7.68c29.76 10.56 56.96 26.24 80.96 46.72l17.28 14.72 89.6-51.52 80 138.56-16-27.84-89.28 51.52 4.16 22.080c2.88 16.32 4.48 31.68 4.48 46.72s-1.6 30.4-4.48 46.72l-4.16 22.080 89.28 51.52-64 110.719-89.6-51.519-17.28 14.719c-23.68 20.48-50.88 36.16-80.96 46.72l-21.44 7.68v103.36h-128v-103.36l-21.44-7.68c-29.76-10.56-56.96-26.24-80.96-46.72l-17.28-14.719-89.601 51.519-64-110.719 89.28-51.52-4.16-22.080c-2.88-16.32-4.48-31.68-4.48-46.72s1.6-30.4 4.48-46.72l4.16-22.080-89.28-51.52 64-110.72 89.601 51.52z" />
<glyph unicode="&#xe982;" glyph-name="cog-shield" d="M392.966 309.76l-56.96-33.28-32.319 55.36 56.959 33.28c-5.44 16-8.64 33.28-8.64 51.2s3.52 34.88 8.96 50.88l-57.279 33.28 32.319 55.36 57.28-33.28c22.4 25.28 52.48 43.52 86.72 50.56v67.2h64v-67.2c34.24-6.72 64.32-24.96 86.72-50.24l56.96 33.28 32.32-55.36-56.96-33.28c5.44-16 8.64-33.28 8.64-51.2s-3.52-34.88-8.96-50.88l57.28-33.28-32.32-55.36-57.28 33.28c-22.4-25.28-52.48-43.52-86.72-50.56v-67.2h-64v67.2c-34.24 6.72-64.32 24.96-86.72 50.24zM608.006 416c0 53.12-42.88 96-96 96s-96-42.88-96-96c0-53.12 42.88-96 96-96s96 42.88 96 96zM192 800h640c35.2 0 64-28.8 64-64v-288c0-328.349-241.341-425.242-371.437-477.469l-0.723-0.291-11.84-4.8-12.131 4.918c-130.31 52.186-371.869 148.928-371.869 477.642v288c0 35.2 28.8 64 64 64zM512 34.56c157.12 64 320 156.48 320 413.44v288h-640v-288c0-256.96 162.88-349.44 320-413.44z" />
<glyph unicode="&#xe983;" glyph-name="color-bucket-brush" d="M224 832h291.2c33.6 0 60.8-25.92 60.8-57.6v-6.4h167.68c58.24 0 94.4-36.8 94.4-96s-36.16-96-94.4-96h-167.68v-6.4c0-31.68-27.2-57.6-60.8-57.6h-291.2v320zM384 768h-96v-192h96v192zM448 576h64v192h-64v-192zM774.080 672c0 26.88-11.2 32-30.4 32h-167.68v-64h167.68c19.2 0 30.4 5.12 30.4 32zM224 384h-64v64h704v-64h-64v-384c0-35.2-28.8-64-64-64h-448c-35.2 0-64 28.8-64 64v384zM608 224v160h-320v-224c0-20.16 5.12-32 32-32s32 11.84 32 32v64c0 58.24 37.76 96 96 96s96-37.76 96-96c0-19.2 5.44-32 32-32s32 12.8 32 32zM288 68.48v-68.48h448v384h-64v-160c0-58.24-37.76-96-96-96s-96 37.76-96 96c0 19.2-5.44 32-32 32s-32-12.8-32-32v-64c0-59.2-36.8-96-96-96-11.52 0-22.080 1.6-32 4.48z" />
<glyph unicode="&#xe984;" glyph-name="color-contrast" d="M352 96c-159.058 0-288 128.941-288 288s128.942 288 288 288c59.203 0 114.237-17.865 160-48.498 45.763 30.633 100.797 48.498 160 48.498 159.059 0 288-128.941 288-288s-128.941-288-288-288c-59.203 0-114.237 17.866-160 48.499-45.763-30.634-100.797-48.499-160-48.499zM352 160c39.498 0 76.608 10.224 108.829 28.166-47.68 51.389-76.829 120.208-76.829 195.834s29.149 144.445 76.829 195.834c-32.221 17.944-69.331 28.166-108.829 28.166-123.712 0-224-100.288-224-224s100.288-224 224-224zM672 608c-39.498 0-76.608-10.223-108.829-28.166 10.355-11.158 19.834-23.139 28.333-35.834h237.264c-40.403 39.59-95.734 64-156.768 64zM874.445 480h-250.832c7.203-20.378 12.176-41.808 14.63-64h255.488c-3.232 22.595-9.837 44.106-19.286 64zM554.445 480h-84.89c-9.45-19.894-16.054-41.405-19.286-64h123.462c-3.232 22.595-9.837 44.106-19.286 64zM469.555 288h84.89c9.45 19.894 16.054 41.405 19.286 64h-123.462c3.232-22.595 9.837-44.106 19.286-64zM591.504 224c-8.499-12.694-17.978-24.675-28.333-35.834 32.221-17.942 69.331-28.166 108.829-28.166 61.034 0 116.365 24.41 156.768 64h-237.264zM874.445 288c9.45 19.894 16.054 41.405 19.286 64h-255.488c-2.454-22.192-7.427-43.622-14.63-64h250.832z" />
<glyph unicode="&#xe985;" glyph-name="color-painting-palette" d="M736 320c35.347 0 64 28.653 64 64s-28.653 64-64 64c-35.347 0-64-28.653-64-64s28.653-64 64-64zM352 384c0-35.347-28.653-64-64-64s-64 28.653-64 64c0 35.347 28.654 64 64 64s64-28.653 64-64zM608 512c35.347 0 64 28.653 64 64s-28.653 64-64 64c-35.347 0-64-28.654-64-64s28.653-64 64-64zM448 576c0-35.347-28.653-64-64-64s-64 28.653-64 64c0 35.346 28.653 64 64 64s64-28.654 64-64zM512 832c-247.040 0-448-200.96-448-448s200.96-448 448-448c77.76 0 128 37.76 128 96 0 19.6-8.746 36.077-16.979 51.59l-0.819 1.549c-10.694 20.115-20.826 39.174-14.842 68.461 6.080 30.72 24.64 35.2 108.48 25.6l1.152-0.128c63.078-7.011 134.522-14.95 186.048 31.168 38.4 34.24 56.96 90.88 56.96 173.76 0 247.040-200.96 448-448 448zM723.2 242.88l-0.16 0.019c-67.507 7.677-159.536 18.144-178.4-76.499-10.451-52.262 8.566-87.907 21.366-111.901l0.394-0.739 1.389-2.659c3.888-7.421 8.211-15.677 8.211-19.101 0-30.4-53.44-32-64-32-211.84 0-384 172.16-384 384s172.16 384 384 384c211.84 0 384-172.16 384-384 0-62.72-11.84-104.96-35.52-126.080-30.72-27.2-84.8-21.12-137.28-15.040z" />
<glyph unicode="&#xe986;" glyph-name="compass-directions" d="M64 384c0 247.040 200.96 448 448 448s448-200.96 448-448c0-247.040-200.96-448-448-448s-448 200.96-448 448zM128 384c0-211.84 172.16-384 384-384s384 172.16 384 384c0 211.84-172.16 384-384 384s-384-172.16-384-384zM616.96 279.040l-327.679-117.12 117.759 327.36 327.68 118.079-117.76-328.319zM533.76 317.12l-88.64 88.64-49.6-138.24 138.24 49.6zM490.24 450.88l88.64-88.64 49.6 138.56-138.24-49.92z" />
<glyph unicode="&#xe987;" glyph-name="compressed" d="M480 576h64v-64h-64v64zM480 448h64v-64h-64v64zM493.12 320c-7.68 0-14.080-5.44-15.68-12.8l-25.6-128c-1.92-9.92 5.44-19.2 15.68-19.2h88.96c10.24 0 17.6 9.28 15.68 19.2l-26.56 128c-1.6 7.36-8 12.8-15.68 12.8h-36.8zM192 768h640c35.2 0 64-28.8 64-64v-640c0-35.2-28.8-64-64-64h-640c-35.2 0-64 28.8-64 64v640c0 35.2 28.8 64 64 64zM192 704v-640h640v640h-288v-64h-64v64h-288z" />
<glyph unicode="&#xe988;" glyph-name="computer-chip" d="M614.4 224h-204.8c-32.96 0-57.6 24.64-57.6 57.6v204.8c0 32.96 24.64 57.6 57.6 57.6h204.8c32.96 0 57.6-24.64 57.6-57.6v-204.8c0-32.96-24.64-57.6-57.6-57.6zM608 480h-192v-192h192v192zM768 704c37.12 0 64-26.88 64-64v-64h96v-64h-96v-96h96v-64h-96v-96h96v-64h-96v-64c0-37.12-26.88-64-64-64h-64v-96h-64v96h-96v-96h-64v96h-96v-96h-64v96h-64c-37.12 0-64 26.88-64 64v64h-96v64h96v96h-96v64h96v96h-96v64h96v64c0 37.12 26.88 64 64 64h64v96h64v-96h96v96h64v-96h96v96h64v-96h64zM256 128h512v512h-512v-512z" />
<glyph unicode="&#xe989;" glyph-name="computer-retro" d="M800 736v-608h-576v608h576zM224 800c-35.346 0-64-28.654-64-64v-608c0-35.347 28.654-64 64-64h576c35.347 0 64 28.653 64 64v608c0 35.346-28.653 64-64 64h-576zM672 608v-224h-320v224h320zM288 672v-352h448v352h-448zM736 192h-224v64h224v-64zM832 96v-128h-640v160h64v-96h512v64h64z" />
<glyph unicode="&#xe98a;" glyph-name="connect" d="M767.994 288c-6.080 0-11.52-0.96-17.28-1.6l-133.44 234.24c33.28 29.44 54.72 71.68 54.72 119.68 0 88.32-71.68 160-160 160s-160-71.68-160-160c0-47.68 21.44-90.24 55.040-119.68l-131.841-234.24c-6.4 0.64-12.48 1.92-18.88 1.92-88.32 0-160-71.68-160-160s71.68-160 160-160c77.121 0 141.761 55.040 156.801 128h198.4c14.72-72.96 79.36-128 156.8-128 88.32 0 160 71.68 160 160s-71.68 160-160 160l-0.32-0.32zM511.994 736c52.8 0 96-43.2 96-96s-43.2-96-96-96c-52.8 0-96 43.2-96 96s43.2 96 96 96zM462.394 488.64c15.68-5.12 32-8.64 49.6-8.64s33.92 3.52 49.6 8.64l127.040-222.72c-39.040-22.4-68.16-60.48-77.44-105.92h-198.4c-9.28 45.12-37.76 82.56-76.16 105.28l125.76 223.36zM255.993 32c-52.8 0-96 43.2-96 96s43.2 96 96 96c52.8 0 96.001-43.2 96.001-96s-43.201-96-96.001-96zM767.994 32c-52.8 0-96 43.2-96 96s43.2 96 96 96c52.8 0 96-43.2 96-96s-43.2-96-96-96z" />
<glyph unicode="&#xe98b;" glyph-name="connect-1" d="M832 288c-28.16 0-54.080-9.6-75.2-24.96l-135.68 111.040c11.84 22.080 18.88 47.040 18.88 73.92 0 32.64-9.92 62.72-26.56 88l57.92 57.92c18.88-11.2 40.96-18.24 64.64-18.24 70.72 0 128 57.28 128 128s-57.28 128-128 128c-70.72 0-128-57.28-128-128 0-23.68 7.040-45.44 18.24-64.64l-57.92-57.92c-25.28 16.64-55.68 26.56-88 26.56-35.84 0-68.8-12.16-95.36-32.32l-79.040 70.4c8.96 17.6 14.4 37.12 14.4 57.92 0 70.72-57.28 128-128 128s-128.32-56.96-128.32-127.68c0-70.72 57.28-128 128-128 26.24 0 50.88 8 71.36 21.76l78.72-70.080c-13.76-23.68-22.080-50.56-22.080-79.68 0-25.6 6.4-49.28 17.28-70.72l-67.52-52.48c-21.76 16.64-48.32 26.88-77.76 26.88-70.72 0-128-57.28-128-128s57.28-128 128-128c70.72 0 128 57.28 128 128 0 17.92-3.84 35.2-10.56 50.88l67.2 52.16c20.16-17.28 44.48-30.080 71.36-35.84v-135.68c-55.040-14.4-96-64-96-123.52 0-70.72 57.28-128 128-128s128 57.28 128 128c0 59.52-40.96 109.12-96 123.52v135.68c25.6 5.12 48.64 17.28 68.48 33.28l135.68-111.040c-7.68-16.32-12.16-34.24-12.16-53.44 0-70.72 57.28-128 128-128s128 57.28 128 128c0 70.72-57.28 128-128 128v0.32zM736 768c35.2 0 64-28.8 64-64s-28.8-64-64-64c-35.2 0-64 28.8-64 64s28.8 64 64 64zM192 640c-35.2 0-64 28.8-64 64s28.8 64 64 64c35.2 0 64-28.8 64-64s-28.8-64-64-64zM192 160c-35.2 0-64 28.8-64 64s28.8 64 64 64c35.2 0 64-28.8 64-64s-28.8-64-64-64zM544 32c0-35.2-28.8-64-64-64s-64 28.8-64 64c0 35.2 28.8 64 64 64s64-28.8 64-64zM480 352c-52.8 0-96 43.2-96 96s43.2 96 96 96c52.8 0 96-43.2 96-96s-43.2-96-96-96zM832 96c-35.2 0-64 28.8-64 64s28.8 64 64 64c35.2 0 64-28.8 64-64s-28.8-64-64-64z" />
<glyph unicode="&#xe98c;" glyph-name="console-terminal" d="M265.281 377.28l89.599-89.28-89.599-89.28 45.44-45.44 134.399 134.72-134.399 134.72-45.44-45.44zM544 320h224v-64h-224v64zM896 736h-768c-35.2 0-64-28.8-64-64v-576c0-35.2 28.8-64 64-64h768c35.2 0 64 28.8 64 64v576c0 35.2-28.8 64-64 64zM896 672v-96h-768v96h768zM128 96v416h768v-416h-768z" />
<glyph unicode="&#xe98d;" glyph-name="consumer-products" d="M480 832h128c35.347 0 64-28.654 64-64v-60.223l60.621-30.311c21.683-10.841 35.379-33.002 35.379-57.244v-332.223h-64v332.223l-39.555 19.777h-240.89l-39.555-19.777v-44.223h320v-64h-320v-32h-64v140.223c0 24.241 13.696 46.402 35.379 57.243l60.621 30.311v60.223c0 35.346 28.653 64 64 64zM608 704v64h-128v-64h128zM576-64h320v192h-196.864l176.099 66.038-22.47 59.923-276.765-103.786v-214.176zM640 64h192v-64h-192v64zM150.628 393.373c5.176-5.178 5.176-13.568 0-18.746l-13.255-13.254c-6.001-6-9.372-14.141-9.372-22.627v-338.746c0-35.347 28.654-64 64-64h192c35.347 0 64 28.653 64 64v338.746c0 8.486-3.373 16.627-9.373 22.627l-13.254 13.254c-5.178 5.178-5.178 13.568 0 18.746 8.349 8.349 2.435 22.627-9.373 22.627h-256c-11.809 0-17.723-14.278-9.372-22.627zM380.118 329.373l3.882-3.882v-325.491h-192v325.491l3.882 3.882c6.745 6.746 11.982 14.426 15.711 22.627h152.813c3.728-8.202 8.966-15.882 15.712-22.627z" />
<glyph unicode="&#xe98e;" glyph-name="contacts" d="M576 320h-128c-88.32 0-160-71.68-160-160v-32h64v32c0 52.8 43.2 96 96 96h128c52.8 0 96-43.2 96-96v-32h64v32c0 88.32-71.68 160-160 160zM620.8 492.8c0-59.84-48.64-108.8-108.8-108.8-59.84 0-108.8 48.96-108.8 108.8v38.4c0 59.84 48.96 108.8 108.8 108.8s108.8-48.96 108.8-108.8v-38.4zM512 576c-24.64 0-44.8-20.16-44.8-44.8v-38.4c0-24.64 20.16-44.8 44.8-44.8s44.8 20.16 44.8 44.8v38.4c0 24.64-20.16 44.8-44.8 44.8zM736 800h-576v-832h576c70.72 0 128 57.28 128 128v576c0 70.72-57.28 128-128 128zM800 96c0-35.2-28.8-64-64-64h-512v704h512c35.2 0 64-28.8 64-64v-576z" />
<glyph unicode="&#xe98f;" glyph-name="contrast" d="M512 832c-247.040 0-448-200.96-448-448s200.96-448 448-448c247.040 0 448 200.96 448 448s-200.96 448-448 448zM128 384c0 211.84 172.16 384 384 384v-768c-211.84 0-384 172.16-384 384z" />
<glyph unicode="&#xe990;" glyph-name="controls-backward" d="M401.6 92.483c8.96-7.040 19.52-10.88 30.4-10.88v-0.32c6.72 0 13.76 1.6 20.48 4.8 16.96 8.32 27.52 24.64 27.52 43.52v508.48c0 18.88-10.56 35.52-27.52 43.52-16.96 8.32-36.48 5.76-50.88-6.080l-310.719-254.4c-11.2-9.28-17.6-22.72-17.6-37.12s6.4-27.84 17.6-37.12l310.719-254.4zM416 163.523l-269.439 220.48 269.439 220.48v-440.96zM817.6 92.483c8.96-7.040 19.52-10.88 30.4-10.88v-0.64c6.72 0 13.76 1.6 20.48 4.8 16.96 8.32 27.52 24.64 27.52 43.52v508.48c0 18.88-10.56 35.52-27.52 43.52-16.96 8.32-36.48 5.76-50.88-6.080l-310.72-254.4c-11.2-9.28-17.6-22.72-17.6-37.12s6.4-27.84 17.6-37.12l310.72-254.080zM832 163.523l-269.44 220.48 269.44 220.48v-440.96z" />
<glyph unicode="&#xe991;" glyph-name="controls-eject" d="M261.759 255.997h500.481c14.72 0 28.48 8 35.2 20.8s6.4 28.16-1.6 40.64l-250.24 389.439c-14.72 23.040-52.48 23.040-67.2 0l-250.241-389.439c-8-12.16-8.64-27.84-1.6-40.64s20.48-20.8 35.2-20.8zM718.4 319.997h-412.801l206.401 320.959 206.4-320.959zM224 128h576v-64h-576v64z" />
<glyph unicode="&#xe992;" glyph-name="controls-fast-backward" d="M64 703.359h64v-639.999h-64v639.999zM496 80.96c-10.88 0-21.44 3.84-30.4 10.88l-310.72 254.080c-11.2 9.28-17.6 22.72-17.6 37.12s6.4 27.84 17.6 37.12l310.72 254.399c14.4 11.84 33.92 14.4 50.88 6.080 16.96-8 27.52-24.64 27.52-43.52v-508.479c0-18.88-10.56-35.2-27.52-43.52-6.72-3.2-13.76-4.8-20.48-4.8v0.64zM210.56 383.36l269.44-220.48v440.959l-269.44-220.479zM912 80.96c-10.88 0-21.44 3.84-30.4 10.88l-310.72 254.080c-11.2 9.28-17.6 22.72-17.6 37.12s6.4 27.84 17.6 37.12l310.72 254.399c14.4 11.84 33.92 14.4 50.88 6.080 16.96-8 27.52-24.64 27.52-43.52v-508.479c0-18.88-10.56-35.2-27.52-43.52-6.72-3.2-13.76-4.8-20.48-4.8v0.64zM626.56 383.36l269.44-220.48v440.959l-269.44-220.479z" />
<glyph unicode="&#xe993;" glyph-name="controls-fast-forward" d="M896 704h64v-640h-64v640zM112 81.6c-7.040 0-14.080 1.6-20.8 4.8-16.96 8-27.52 24.64-27.52 43.52v508.16c0 18.88 10.56 35.2 27.52 43.52 16.96 8 36.48 5.44 50.88-6.080l310.72-254.080c11.2-9.28 17.6-22.72 17.6-37.12s-6.4-28.16-17.6-37.12l-310.72-254.080c-8.64-7.36-19.52-10.88-30.4-10.88l0.32-0.64zM128 163.52l269.44 220.48-269.44 220.48v-440.96zM528 81.6c-7.040 0-14.080 1.6-20.8 4.8-16.96 8-27.52 24.64-27.52 43.52v508.16c0 18.88 10.56 35.2 27.52 43.52 16.96 8 36.48 5.44 50.88-6.080l310.72-254.080c11.2-9.28 17.6-22.72 17.6-37.12s-6.4-28.16-17.6-37.12l-310.72-254.080c-8.64-7.36-19.52-10.88-30.4-10.88l0.32-0.64zM544 163.52l269.44 220.48-269.44 220.48v-440.96z" />
<glyph unicode="&#xe994;" glyph-name="controls-forward" d="M155.2 86.397c6.72-3.2 13.76-4.8 20.8-4.8l-0.32 0.64c10.88 0 21.76 3.52 30.4 10.88l310.72 254.080c11.2 8.96 17.6 22.72 17.6 37.12s-6.4 27.84-17.6 37.12l-310.72 254.081c-14.4 11.52-33.92 14.080-50.88 6.080-16.96-8.32-27.52-24.64-27.52-43.52v-508.161c0-18.88 10.56-35.52 27.52-43.52zM461.44 383.997l-269.44-220.48v440.961l269.44-220.481zM571.2 86.397c6.72-3.2 13.76-4.8 20.8-4.8l-0.32 0.64c10.88 0 21.76 3.52 30.4 10.88l310.72 254.080c11.2 8.96 17.6 22.72 17.6 37.12s-6.4 27.84-17.6 37.12l-310.72 254.081c-14.4 11.52-33.92 14.080-50.88 6.080-16.96-8.32-27.52-24.64-27.52-43.52v-508.161c0-18.88 10.56-35.52 27.52-43.52zM877.44 383.997l-269.44-220.48v440.961l269.44-220.481z" />
<glyph unicode="&#xe995;" glyph-name="controls-pause" d="M256 64h128c35.2 0 64 28.8 64 64v512c0 35.2-28.8 64-64 64h-128c-35.2 0-64-28.8-64-64v-512c0-35.2 28.8-64 64-64zM256 128v512h128v-512h-128zM640 64h128c35.2 0 64 28.8 64 64v512c0 35.2-28.8 64-64 64h-128c-35.2 0-64-28.8-64-64v-512c0-35.2 28.8-64 64-64zM640 128v512h128v-512h-128z" />
<glyph unicode="&#xe996;" glyph-name="controls-play" d="M384 62.077c-9.92 0-20.16 2.24-29.44 7.040-21.44 10.88-34.56 32.96-34.56 56.96v515.841c0 24 13.44 45.76 34.56 56.96 21.44 11.2 46.72 9.28 66.56-4.8l363.2-258.561c16.96-12.8 26.24-31.36 26.24-51.52s-9.28-39.040-25.6-51.2h-0.64l-363.2-258.88c-11.2-8-24-11.84-37.12-11.84zM384 641.918v-515.841l362.88 257.92-362.88 257.921z" />
<glyph unicode="&#xe997;" glyph-name="controls-record" d="M704 384c0-106.038-85.962-192-192-192s-192 85.962-192 192c0 106.038 85.962 192 192 192s192-85.962 192-192zM64 384c0 247.040 200.96 448 448 448s448-200.96 448-448c0-247.040-200.96-448-448-448s-448 200.96-448 448zM128 384c0-211.84 172.16-384 384-384s384 172.16 384 384c0 211.84-172.16 384-384 384s-384-172.16-384-384z" />
<glyph unicode="&#xe998;" glyph-name="controls-shuffle" d="M834.88 576l-73.6-73.28 45.44-45.44 150.4 150.719-150.4 150.72-45.44-45.44 73.6-73.28h-211.2l-320-447.999h-239.68v-64h272.32l320 448h178.56zM761.277 265.283l73.6-73.28h-178.56l-87.68 123.2-52.16-37.12 107.2-150.080h211.2l-73.6-73.28 45.44-45.44 150.4 150.72-150.4 150.72-45.44-45.44zM435.84 498.24l-52.48-36.48-80 114.24h-239.36v64h272.64l99.2-141.76z" />
<glyph unicode="&#xe999;" glyph-name="controls-step-backward" d="M288 704h64v-640h-64v640zM689.6 92.48c8.96-7.040 19.52-10.88 30.4-10.88v-0.64c6.72 0 13.76 1.6 20.48 4.8 16.96 8.32 27.52 24.64 27.52 43.52v508.48c0 18.88-10.56 35.52-27.52 43.52-16.96 8.32-36.48 5.76-50.88-6.080l-310.72-254.4c-11.2-9.28-17.6-22.72-17.6-37.12s6.4-27.84 17.6-37.12l310.72-254.080zM704 163.52l-269.44 220.48 269.44 220.48v-440.96z" />
<glyph unicode="&#xe99a;" glyph-name="controls-step-forward" d="M672 704h64v-640h-64v640zM283.2 86.4c6.72-3.2 13.76-4.8 20.8-4.8l-0.32 0.64c10.88 0 21.76 3.52 30.4 10.88l310.72 254.080c11.2 8.96 17.6 22.72 17.6 37.12s-6.4 27.84-17.6 37.12l-310.72 254.080c-14.4 11.52-33.92 14.080-50.88 6.080-16.96-8.32-27.52-24.64-27.52-43.52v-508.16c0-18.88 10.56-35.52 27.52-43.52zM589.44 384l-269.44-220.48v440.96l269.44-220.48z" />
<glyph unicode="&#xe99b;" glyph-name="controls-stop" d="M768 64h-512c-35.2 0-64 28.8-64 64v512c0 35.2 28.8 64 64 64h512c35.2 0 64-28.8 64-64v-512c0-35.2-28.8-64-64-64zM256 640v-512h512v512h-512z" />
<glyph unicode="&#xe99c;" glyph-name="controls-volume-full" d="M787.52 764.797l-42.56-48c96-85.12 151.040-207.36 151.040-335.36s-53.12-246.4-146.24-330.88l43.2-47.36c106.24 96.96 167.040 234.56 167.040 378.24s-63.040 286.080-172.48 383.36zM696 631.359l-45.12-45.44c54.72-54.399 85.12-127.039 85.12-204.159s-30.4-150.080-85.44-204.8l45.12-45.44c67.2 66.56 104.32 155.52 104.32 250.24s-36.8 183.040-104 249.599zM478.4 726.718c19.52 11.84 44.48 12.48 64.96 0.96 20.48-11.2 32.64-32 32.64-55.040v-577.278c0-23.040-12.16-43.52-32.64-55.040-9.6-5.44-20.48-8.32-31.36-8.32-11.52 0-23.36 3.2-33.6 9.6l-199.040 118.4h-151.36c-35.2 0-64 28.8-64 64v320c0 35.198 28.8 63.998 64 63.998h151.040l199.36 118.72zM296.64 224l214.72-127.68 0.64 576.318-215.36-128.638h-168.64v-320h168.64z" />
<glyph unicode="&#xe99d;" glyph-name="controls-volume-low" d="M343.36 607.997l199.36 118.72h-0.64c19.52 11.84 44.48 12.16 64.96 0.96s32.64-32 32.64-55.040v-577.28c0-23.040-12.16-43.52-32.64-55.040-9.6-5.44-20.48-8.32-31.36-8.32-11.52 0-23.36 3.2-33.6 9.6l-199.040 118.4h-151.040c-35.2 0-64 28.8-64 64v320c0 35.2 28.8 64 64 64h151.36zM360.64 223.997l214.72-127.68 0.64 576.32-215.040-128.64h-168.96v-320h168.64zM792.96 137.28c0 0 0.003 0 0 0v0zM896 384c0-93.44-36.8-181.12-103.040-246.72l-44.8 45.12c54.080 53.44 83.84 125.12 83.84 201.28s-29.76 147.52-83.84 201.278l45.12 45.44c66.24-65.598 102.72-152.958 102.72-246.398z" />
<glyph unicode="&#xe99e;" glyph-name="controls-volume-off" d="M478.080 41.597l-199.040 118.4h-151.040c-35.2 0-64 28.8-64 64v320c0 35.2 28.8 64 64 64h150.72l199.36 118.72c19.52 11.84 44.48 12.16 64.96 0.96s32.64-32 32.64-55.040v-577.28c0-23.040-12.16-43.52-32.64-55.040-9.6-5.44-20.48-8.32-31.36-8.32-11.52 0-23.36 3.2-33.6 9.6zM296.96 543.997h-168.96v-320h168.64l214.72-127.68 0.64 576.32-215.040-128.64zM800 429.12l105.28 105.6 45.44-45.44-105.6-105.28 105.6-105.28-45.44-45.44-105.28 105.6-105.28-105.6-45.44 45.44 105.6 105.28-105.6 105.28 45.44 45.44 105.28-105.6z" />
<glyph unicode="&#xe99f;" glyph-name="conversation-question-warning" d="M539.52 567.040c-4.48 5.76-13.76 8.96-27.52 8.96h-0.32c-33.28 0-38.72-24.64-39.040-39.040h-64c0 41.28 27.52 103.040 103.040 103.040 43.2 0 66.56-18.56 78.4-34.24 30.662-40.243 16.374-97.379 14.73-103.962l-0.010-0.038-2.88-10.88-58.24-41.6v-33.28h-64v66.24l65.28 46.72c1.6 12.16 1.6 29.12-5.44 38.080zM544 352c0-17.674-14.326-32-32-32s-32 14.326-32 32c0 17.674 14.326 32 32 32s32-14.326 32-32zM704 320c17.674 0 32 14.326 32 32s-14.326 32-32 32c-17.674 0-32-14.326-32-32s14.326-32 32-32zM352 352c0-17.674-14.326-32-32-32s-32 14.326-32 32c0 17.674 14.327 32 32 32s32-14.326 32-32zM736 640h-64v-224h64v224zM256 192h-64c-35.2 0-64 28.8-64 64v448c0 35.2 28.8 64 64 64h640c35.2 0 64-28.8 64-64v-448c0-35.2-28.8-64-64-64h-309.76l-266.24-190.080v190.080zM832 704h-640v-448h128v-129.92l181.76 129.92h330.24v448z" />
<glyph unicode="&#xe9a0;" glyph-name="conveyor-belt" d="M672 762.537v69.463h-64v-69.463c-37.286-13.179-64-48.738-64-90.537s26.714-77.359 64-90.537v-56.208l-165.443-165.443 49.030-124.877 59.571 23.389-33.712 85.866 122.554 122.557 122.554-122.557-33.712-85.866 59.571-23.389 49.030 124.877-165.443 165.443v56.208c37.286 13.179 64 48.738 64 90.537s-26.714 77.359-64 90.537zM672 672c0-17.673-14.326-32-32-32s-32 14.327-32 32c0 17.673 14.326 32 32 32s32-14.327 32-32zM800 64h-736v64h64v128h128v-128h544c88.365 0 160-71.635 160-160v-32h-64v32c0 53.021-42.979 96-96 96zM160-64c17.673 0 32 14.326 32 32s-14.327 32-32 32c-17.673 0-32-14.326-32-32s14.327-32 32-32zM832-32c0-17.674-14.326-32-32-32s-32 14.326-32 32c0 17.674 14.326 32 32 32s32-14.326 32-32zM480-64c17.674 0 32 14.326 32 32s-14.326 32-32 32c-17.674 0-32-14.326-32-32s14.326-32 32-32zM704 192v128h-128v-128h128z" />
<glyph unicode="&#xe9a1;" glyph-name="copy" d="M576 704h-384v-384h-64v384c0 35.2 28.8 64 64 64h384v-64zM320 0c-35.2 0-64 28.8-64 64v512c0 35.2 28.8 64 64 64h512c35.2 0 64-28.8 64-64v-512c0-35.2-28.8-64-64-64h-512zM320 64h512v512h-512v-512z" />
<glyph unicode="&#xe9a2;" glyph-name="crane" d="M688 442.979l-448.473-448.474-45.212 45.213 56.3 56.278h-112.578l-79.53 79.53 554.807 554.806c5.139 5.138 11.872 8.374 19.094 9.177l271.53 0.002c30.064 3.34 47.549-33.043 26.16-54.432l-50.099-50.1v-266.98c0-26.509-21.491-48-48-48h-16v-143.805c0.125-0.346 0.547-1.232 1.821-2.72 2.458-2.864 6.659-6.176 12.234-9.229 29.693-16.256 49.946-47.862 49.946-84.246 0-53.021-42.979-96-96-96-28.976 0-56.765 11.51-77.254 32l-9.373 9.373 45.254 45.254 9.373-9.373c8.486-8.486 19.997-13.254 32-13.254 17.674 0 32 14.326 32 32 0 12.070-6.669 22.63-16.678 28.109-9.93 5.434-21.069 13.194-30.080 23.702-9.152 10.672-17.242 25.616-17.242 44.189v144h-16c-26.509 0-48 21.491-48 48v74.979zM415.664 442.173h180.221l-0.003 180.217-180.218-180.217zM752 506.979v-122.979h64v186.979l-64-64zM659.882 677.141l0.003-172.043 172.115 172.043h-172.118zM359.098 378.173v-173.738l173.811 173.738h-173.811zM295.098 159.997v161.61l-161.61-161.61h161.61z" />
<glyph unicode="&#xe9a3;" glyph-name="credit-card" d="M224 256h96v-64h-96v64zM480 256h-96v-64h96v64zM544 256h96v-64h-96v64zM800 256h-96v-64h96v64zM608 576h192v-192h-192v192zM672 448h64v64h-64v-64zM160 704h704c37.12 0 64-26.88 64-64v-512c0-37.12-26.88-64-64-64h-704c-37.12 0-64 26.88-64 64v512c0 37.12 26.88 64 64 64zM160 128h704v512h-704v-512z" />
</font>
</defs>
</svg>
